g Kayoko_Original_Halo
v -0.1422155 0.1033259 0.001549989
v -0.1422155 0.1033259 -0.001550257
v -0.1422155 -0.1033255 -0.001550257
v -0.1422155 -0.1033255 0.001549989
v -0.1777942 0.1291747 -0.001550257
v -0.1777942 0.1291747 0.001549989
v -0.1777942 -0.1291749 0.001549989
v -0.1777942 -0.1291749 -0.001550257
v 0.05432141 -0.1671845 0.001549989
v -0.1422155 -0.1033255 0.001549989
v -0.1422155 -0.1033255 -0.001550257
v 0.05432141 -0.1671845 -0.001550257
v -0.08422503 -0.1595776 -0.001550257
v -0.1777942 -0.1291749 -0.001550257
v -0.1777942 -0.1291749 0.001549989
v -0.08422503 -0.1595776 0.001549989
v 0.05432141 -0.1671845 0.001549989
v 0.05432141 -0.1671845 -0.001550257
v 0.1757881 -1.490116E-07 0.001549989
v 0.1757881 -1.490116E-07 -0.001550257
v 0.12574 -0.1294145 -0.001550257
v 0.06791151 -0.2090096 -0.001550257
v 0.06791151 -0.2090096 0.001549989
v 0.12574 -0.1294145 0.001549989
v 0.05432141 0.1671848 0.001549989
v 0.1757881 -1.490116E-07 0.001549989
v 0.1757881 -1.490116E-07 -0.001550257
v 0.05432141 0.1671848 -0.001550257
v 0.2197653 -1.490116E-07 -0.001550257
v 0.2197653 -1.490116E-07 0.001549989
v 0.06791151 0.2090093 0.001549989
v 0.06791151 0.2090093 -0.001550257
v -0.1422155 0.1033259 0.001549989
v 0.05432141 0.1671848 0.001549989
v 0.05432141 0.1671848 -0.001550257
v -0.1422155 0.1033259 -0.001550257
v -0.02565828 0.1786067 -0.001550257
v 0.06791151 0.2090093 -0.001550257
v 0.06791151 0.2090093 0.001549989
v -0.02565828 0.1786067 0.001549989
v 0.06791151 -0.2090096 -0.001550257
v -0.02565828 -0.1786069 -0.001550257
v -0.02565828 -0.1786069 0.001549989
v 0.06791151 -0.2090096 0.001549989
v 0.2197653 -1.490116E-07 -0.001550257
v 0.1619362 -0.07959449 -0.001550257
v 0.1619362 -0.07959449 0.001549989
v 0.2197653 -1.490116E-07 0.001549989
v -0.1777942 0.1291747 -0.001550257
v -0.08422503 0.1595773 -0.001550257
v -0.08422503 0.1595773 0.001549989
v -0.1777942 0.1291747 0.001549989
v -0.08422503 -0.1595776 0.001549989
v -0.118977 -0.3414567 0.00186649
v -0.118977 -0.3414567 -0.001866758
v -0.08422503 -0.1595776 -0.001550257
v -0.08422503 -0.1595776 -0.001550257
v -0.118977 -0.3414567 -0.001866758
v -0.02565828 -0.1786069 -0.001550257
v -0.1422155 -0.1033255 -0.001550257
v -0.1777942 -0.1291749 -0.001550257
v 0.05432141 -0.1671845 -0.001550257
v -0.1422155 0.1033259 -0.001550257
v 0.06791151 -0.2090096 -0.001550257
v -0.1777942 0.1291747 -0.001550257
v 0.12574 -0.1294145 -0.001550257
v -0.08422503 0.1595773 -0.001550257
v 0.1619362 -0.07959449 -0.001550257
v 0.2969572 -0.2063115 -0.001866758
v 0.1757881 -1.490116E-07 -0.001550257
v 0.2197653 -1.490116E-07 -0.001550257
v 0.05432141 0.1671848 -0.001550257
v 0.06791151 0.2090093 -0.001550257
v -0.02565828 0.1786067 -0.001550257
v -0.118977 0.3661728 -0.001866758
v -0.02565828 -0.1786069 -0.001550257
v -0.118977 -0.3414567 -0.001866758
v -0.118977 -0.3414567 0.00186649
v -0.02565828 -0.1786069 0.001549989
v 0.12574 -0.1294145 0.001549989
v 0.2969572 -0.2063115 0.001865804
v 0.2969572 -0.2063115 -0.001866758
v 0.12574 -0.1294145 -0.001550257
v 0.1619362 -0.07959449 -0.001550257
v 0.2969572 -0.2063115 -0.001866758
v 0.2969572 -0.2063115 0.001865804
v 0.1619362 -0.07959449 0.001549989
v -0.02565828 0.1786067 0.001549989
v -0.118977 0.3661728 0.001865804
v -0.118977 0.3661728 -0.001866758
v -0.02565828 0.1786067 -0.001550257
v -0.08422503 0.1595773 -0.001550257
v -0.118977 0.3661728 -0.001866758
v -0.118977 0.3661728 0.001865804
v -0.08422503 0.1595773 0.001549989
v 0.09628215 0.06995466 0.03493476
v 0.09628215 0.06995466 0.03705311
v -0.03678316 0.1131902 0.03705311
v -0.03678316 0.1131902 0.03493476
v 0.09628215 -0.06995833 0.03493476
v -0.1190223 -1.490116E-06 0.03705311
v 0.09628215 -0.06995833 0.03705311
v -0.1190223 -1.490116E-06 0.03493476
v -0.03678316 -0.1131939 0.03493476
v -0.03678316 -0.1131939 0.03705311
v 0.06924772 0.0503132 0.03705311
v 0.06924772 0.0503132 0.03493476
v -0.02645731 0.08140954 0.03493476
v -0.02645731 0.08140954 0.03705311
v 0.06924772 -0.05031687 0.03705311
v -0.08560577 -1.490116E-06 0.03493476
v 0.06924772 -0.05031687 0.03493476
v -0.08560577 -1.490116E-06 0.03705311
v -0.02645731 -0.08141321 0.03705311
v -0.02645731 -0.08141321 0.03493476
v 0.06924772 0.0503132 0.03493476
v 0.09628215 0.06995466 0.03493476
v -0.03678316 0.1131902 0.03493476
v -0.02645731 0.08140954 0.03493476
v 0.06924772 -0.05031687 0.03493476
v -0.1190223 -1.490116E-06 0.03493476
v 0.09628215 -0.06995833 0.03493476
v -0.08560577 -1.490116E-06 0.03493476
v -0.02645731 -0.08141321 0.03493476
v -0.03678316 -0.1131939 0.03493476
vt 0.7207403 0.7691681
vt 0.7205488 0.7691681
vt 0.848123 0.3607954
vt 0.8483145 0.3607954
vt 0.7748699 0.8422297
vt 0.7750614 0.8422149
vt 0.9345621 0.3316827
vt 0.9343706 0.3316975
vt 0.4994783 0.1132052
vt 0.8483145 0.3607954
vt 0.848123 0.3607954
vt 0.4992867 0.1132052
vt 0.7682989 0.2138177
vt 0.9343706 0.3316975
vt 0.9345621 0.3316827
vt 0.7684757 0.213803
vt 0.4994783 0.1132052
vt 0.4992867 0.1132052
vt 0.1562996 0.3685597
vt 0.1561081 0.3685745
vt 0.3348798 0.1437323
vt 0.4982702 0.02216925
vt 0.4984469 0.02215452
vt 0.3350713 0.1437323
vt 0.2930525 0.7739564
vt 0.1562996 0.3685597
vt 0.1561081 0.3685745
vt 0.2928609 0.7739711
vt 0.06924158 0.3414066
vt 0.06941839 0.3413919
vt 0.2403816 0.8482261
vt 0.24019 0.8482261
vt 0.7207403 0.7691681
vt 0.2930525 0.7739564
vt 0.2928609 0.7739711
vt 0.7205488 0.7691681
vt 0.4438018 0.8459424
vt 0.24019 0.8482261
vt 0.2403816 0.8482261
vt 0.4439933 0.8459277
vt 0.4982702 0.02216925
vt 0.6643419 0.1400342
vt 0.6645335 0.1400342
vt 0.4984469 0.02215452
vt 0.06924158 0.3414066
vt 0.2326172 0.2198289
vt 0.2328087 0.2198141
vt 0.06941839 0.3413919
vt 0.7748699 0.8422297
vt 0.5712581 0.8445133
vt 0.5714496 0.8444986
vt 0.7750614 0.8422149
vt 0.7684757 0.213803
vt 0.8165498 0.08111648
vt 0.8163878 0.08113122
vt 0.7682989 0.2138177
vt 0.7682989 0.2138177
vt 0.8163878 0.08113122
vt 0.6643419 0.1400342
vt 0.848123 0.3607954
vt 0.9343706 0.3316975
vt 0.4992867 0.1132052
vt 0.7205488 0.7691681
vt 0.4982702 0.02216925
vt 0.7748699 0.8422297
vt 0.3348798 0.1437323
vt 0.5712581 0.8445133
vt 0.2326172 0.2198289
vt 0.1769849 0.08830625
vt 0.1561081 0.3685745
vt 0.06924158 0.3414066
vt 0.2928609 0.7739711
vt 0.24019 0.8482261
vt 0.4438018 0.8459424
vt 0.507773 0.9876898
vt 0.6643419 0.1400342
vt 0.8163878 0.08113122
vt 0.8165498 0.08111648
vt 0.6645335 0.1400342
vt 0.3350713 0.1437323
vt 0.177147 0.08829151
vt 0.1769849 0.08830625
vt 0.3348798 0.1437323
vt 0.2326172 0.2198289
vt 0.1769849 0.08830625
vt 0.177147 0.08829151
vt 0.2328087 0.2198141
vt 0.4439933 0.8459277
vt 0.5079351 0.9876751
vt 0.507773 0.9876898
vt 0.4438018 0.8459424
vt 0.5712581 0.8445133
vt 0.507773 0.9876898
vt 0.5079351 0.9876751
vt 0.5714496 0.8444986
vt 0.2487794 0.5613721
vt 0.248912 0.5613721
vt 0.508716 0.7457572
vt 0.5085686 0.7457719
vt 0.3437934 0.2572362
vt 0.7642915 0.555582
vt 0.3439407 0.2572362
vt 0.7641588 0.5555968
vt 0.6623088 0.2536708
vt 0.6624561 0.2536561
vt 0.3210012 0.537033
vt 0.3208686 0.5370477
vt 0.5077141 0.6696754
vt 0.5078614 0.6696606
vt 0.3893482 0.3182903
vt 0.6915393 0.532893
vt 0.3892008 0.318305
vt 0.6916866 0.5328783
vt 0.6184335 0.3157268
vt 0.6182862 0.3157268
vt 0.3208686 0.5370477
vt 0.2487794 0.5613721
vt 0.5085686 0.7457719
vt 0.5077141 0.6696754
vt 0.3892008 0.318305
vt 0.7641588 0.5555968
vt 0.3437934 0.2572362
vt 0.6915393 0.532893
vt 0.6182862 0.3157268
vt 0.6623088 0.2536708
vn 0.9999995 0.0009775162 0
vn 0.9999995 0.0009775162 0
vn 0.9999995 0.0009775162 0
vn 0.9999995 0.0009775162 0
vn -0.9999995 0.0009775162 0
vn -0.9999995 0.0009775162 0
vn -0.9999995 0.0009775162 0
vn -0.9999995 0.0009775162 0
vn 0.3097709 0.9508112 0
vn 0.3097709 0.9508112 0
vn 0.3097709 0.9508112 0
vn 0.3097709 0.9508112 0
vn -0.3097709 -0.9508112 0
vn -0.3097709 -0.9508112 0
vn -0.3097709 -0.9508112 0
vn -0.3097709 -0.9508112 0
vn -0.8084062 0.5874875 -0.03657671
vn -0.8084062 0.5874875 -0.03657671
vn -0.8084062 0.5874875 -0.03657671
vn -0.8084062 0.5874875 -0.03657671
vn 0.8084062 -0.5874875 -0.03657671
vn 0.8084062 -0.5874875 -0.03657671
vn 0.8084062 -0.5874875 -0.03657671
vn 0.8084062 -0.5874875 -0.03657671
vn -0.8084062 -0.5874875 -0.03657671
vn -0.8084062 -0.5874875 -0.03657671
vn -0.8084062 -0.5874875 -0.03657671
vn -0.8084062 -0.5874875 -0.03657671
vn 0.8084062 0.5874875 -0.03657671
vn 0.8084062 0.5874875 -0.03657671
vn 0.8084062 0.5874875 -0.03657671
vn 0.8084062 0.5874875 -0.03657671
vn 0.3097709 -0.9508112 0
vn 0.3097709 -0.9508112 0
vn 0.3097709 -0.9508112 0
vn 0.3097709 -0.9508112 0
vn -0.3097709 0.9508112 0
vn -0.3097709 0.9508112 0
vn -0.3097709 0.9508112 0
vn -0.3097709 0.9508112 0
vn -0.3097709 -0.9508112 0
vn -0.3097709 -0.9508112 0
vn -0.3097709 -0.9508112 0
vn -0.3097709 -0.9508112 0
vn 0.8084062 -0.5874875 -0.03657671
vn 0.8084062 -0.5874875 -0.03657671
vn 0.8084062 -0.5874875 -0.03657671
vn 0.8084062 -0.5874875 -0.03657671
vn -0.3097709 0.9508112 0
vn -0.3097709 0.9508112 0
vn -0.3097709 0.9508112 0
vn -0.3097709 0.9508112 0
vn -0.9824042 0.1867057 0.004788441
vn -0.9824042 0.1867057 0.004788441
vn -0.9824042 0.1867057 0.004788441
vn -0.9824042 0.1867057 0.004788441
vn -0.0009775162 0.0009775162 -0.999999
vn 0.0009775162 0.0009775162 -0.999999
vn 0.0009775162 0.0009775162 -0.999999
vn -0.0009775162 0.0009775162 -0.999999
vn -0.0009775162 0.0009775162 -0.999999
vn -0.0009775162 0.0009775162 -0.999999
vn -0.0009775162 0.0009775162 -0.999999
vn -0.0009775162 0.0009775162 -0.999999
vn -0.0009775162 0.0009775162 -0.999999
vn -0.0009775162 0.0009775162 -0.999999
vn 0.0009775162 -0.0009775162 -0.999999
vn -0.0009775162 0.0009775162 -0.999999
vn -0.0009775162 0.0009775162 -0.999999
vn -0.0009775162 0.0009775162 -0.999999
vn -0.0009775162 0.0009775162 -0.999999
vn -0.0009775162 0.0009775162 -0.999999
vn -0.0009775162 0.0009775162 -0.999999
vn -0.0009775162 0.0009775162 -0.999999
vn 0.0009775162 -0.0009775162 -0.999999
vn 0.8670573 -0.497556 0.02548991
vn 0.8670573 -0.497556 0.02548991
vn 0.8670573 -0.497556 0.02548991
vn 0.8670573 -0.497556 0.02548991
vn -0.4095795 -0.912023 0.0214163
vn -0.4095795 -0.912023 0.0214163
vn -0.4095795 -0.912023 0.0214163
vn -0.4095795 -0.912023 0.0214163
vn 0.6852392 0.7282499 0.009965005
vn 0.6852392 0.7282499 0.009965005
vn 0.6852392 0.7282499 0.009965005
vn 0.6852392 0.7282499 0.009965005
vn 0.8944277 0.4447701 -0.04667542
vn 0.8944277 0.4447701 -0.04667542
vn 0.8944277 0.4447701 -0.04667542
vn 0.8944277 0.4447701 -0.04667542
vn -0.9862615 -0.1651915 0
vn -0.9862615 -0.1651915 0
vn -0.9862615 -0.1651915 0
vn -0.9862615 -0.1651915 0
vn 0.8084062 0.5874875 -0.03657671
vn 0.8084062 0.5874875 -0.03657671
vn -0.3097709 0.9508112 0
vn -0.3097709 0.9508112 0
vn 0.8084062 -0.5874875 -0.03657671
vn -0.9999995 0.0009775162 0
vn 0.8084062 -0.5874875 -0.03657671
vn -0.9999995 0.0009775162 0
vn -0.3097709 -0.9508112 0
vn -0.3097709 -0.9508112 0
vn -0.8084062 -0.5874875 -0.03657671
vn -0.8084062 -0.5874875 -0.03657671
vn 0.3097709 -0.9508112 0
vn 0.3097709 -0.9508112 0
vn -0.8084062 0.5874875 -0.03657671
vn 0.9999995 0.0009775162 0
vn -0.8084062 0.5874875 -0.03657671
vn 0.9999995 0.0009775162 0
vn 0.3097709 0.9508112 0
vn 0.3097709 0.9508112 0
vn 0.0009775162 -0.0009775162 -0.999999
vn 0.0009775162 -0.0009775162 -0.999999
vn 0.0009775162 -0.0009775162 -0.999999
vn 0.0009775162 -0.0009775162 -0.999999
vn 0.0009775162 -0.0009775162 -0.999999
vn 0.0009775162 -0.0009775162 -0.999999
vn 0.0009775162 -0.0009775162 -0.999999
vn 0.0009775162 -0.0009775162 -0.999999
vn 0.0009775162 -0.0009775162 -0.999999
vn 0.0009775162 -0.0009775162 -0.999999
g Kayoko_Original_Halo_0
f 3/3/3 2/2/2 1/1/1
f 4/4/4 3/3/3 1/1/1
f 7/7/7 6/6/6 5/5/5
f 8/8/8 7/7/7 5/5/5
f 11/11/11 10/10/10 9/9/9
f 12/12/12 11/11/11 9/9/9
f 15/15/15 14/14/14 13/13/13
f 16/16/16 15/15/15 13/13/13
f 19/19/19 18/18/18 17/17/17
f 20/20/20 18/18/18 19/19/19
f 23/23/23 22/22/22 21/21/21
f 24/24/24 23/23/23 21/21/21
f 27/27/27 26/26/26 25/25/25
f 28/28/28 27/27/27 25/25/25
f 31/31/31 30/30/30 29/29/29
f 32/32/32 31/31/31 29/29/29
f 35/35/35 34/34/34 33/33/33
f 36/36/36 35/35/35 33/33/33
f 39/39/39 38/38/38 37/37/37
f 40/40/40 39/39/39 37/37/37
f 43/43/43 42/42/42 41/41/41
f 44/44/44 43/43/43 41/41/41
f 47/47/47 46/46/46 45/45/45
f 48/48/48 47/47/47 45/45/45
f 51/51/51 50/50/50 49/49/49
f 52/52/52 51/51/51 49/49/49
f 55/55/55 54/54/54 53/53/53
f 56/56/56 55/55/55 53/53/53
f 59/59/59 58/58/58 57/57/57
f 59/59/59 57/57/57 60/60/60
f 57/57/57 61/61/61 60/60/60
f 62/62/62 59/59/59 60/60/60
f 60/60/60 61/61/61 63/63/63
f 64/64/64 59/59/59 62/62/62
f 61/61/61 65/65/65 63/63/63
f 66/66/66 64/64/64 62/62/62
f 65/65/65 67/67/67 63/63/63
f 68/68/68 66/66/66 62/62/62
f 68/68/68 69/69/69 66/66/66
f 70/70/70 68/68/68 62/62/62
f 71/71/71 68/68/68 70/70/70
f 71/71/71 70/70/70 72/72/72
f 73/73/73 71/71/71 72/72/72
f 74/74/74 73/73/73 72/72/72
f 74/74/74 72/72/72 63/63/63
f 67/67/67 74/74/74 63/63/63
f 67/67/67 75/75/75 74/74/74
f 78/78/78 77/77/77 76/76/76
f 79/79/79 78/78/78 76/76/76
f 82/82/82 81/81/81 80/80/80
f 83/83/83 82/82/82 80/80/80
f 86/86/86 85/85/85 84/84/84
f 87/87/87 86/86/86 84/84/84
f 90/90/90 89/89/89 88/88/88
f 91/91/91 90/90/90 88/88/88
f 94/94/94 93/93/93 92/92/92
f 95/95/95 94/94/94 92/92/92
f 98/98/98 97/97/97 96/96/96
f 99/99/99 98/98/98 96/96/96
f 96/96/96 97/97/97 100/100/100
f 101/101/101 98/98/98 99/99/99
f 97/97/97 102/102/102 100/100/100
f 103/103/103 101/101/101 99/99/99
f 100/100/100 102/102/102 104/104/104
f 105/105/105 101/101/101 103/103/103
f 104/104/104 105/105/105 103/103/103
f 102/102/102 105/105/105 104/104/104
f 108/108/108 107/107/107 106/106/106
f 109/109/109 108/108/108 106/106/106
f 106/106/106 107/107/107 110/110/110
f 111/111/111 108/108/108 109/109/109
f 107/107/107 112/112/112 110/110/110
f 113/113/113 111/111/111 109/109/109
f 110/110/110 112/112/112 114/114/114
f 115/115/115 111/111/111 113/113/113
f 114/114/114 115/115/115 113/113/113
f 112/112/112 115/115/115 114/114/114
f 118/118/118 117/117/117 116/116/116
f 119/119/119 118/118/118 116/116/116
f 116/116/116 117/117/117 120/120/120
f 121/121/121 118/118/118 119/119/119
f 117/117/117 122/122/122 120/120/120
f 123/123/123 121/121/121 119/119/119
f 120/120/120 122/122/122 124/124/124
f 125/125/125 121/121/121 123/123/123
f 124/124/124 125/125/125 123/123/123
f 122/122/122 125/125/125 124/124/124
