g Chise_Original_Halo
v -0.146657 -0.04765205 0.03708178
v -0.061336 -0.1118833 0.09678458
v -0.061336 -0.1147424 0.09337723
v -0.146657 -0.04479297 0.04048912
v -0.146657 0.04479298 -0.0404891
v -0.146657 0.04765207 -0.03708176
v -0.061336 0.1118834 -0.09678456
v -0.061336 0.1147424 -0.09337693
v -0.05591741 -0.1049036 0.08512139
v -0.05591741 -0.1020443 0.08852874
v -0.1338131 -0.04079261 0.0371324
v -0.1338131 -0.04365197 0.03372505
v -0.1338131 0.04365198 -0.03372505
v -0.1338131 0.04079261 -0.03713239
v -0.05591741 0.1049036 -0.0851211
v -0.05591741 0.1020443 -0.08852872
v -0.05591741 0.1020443 -0.08852872
v -0.05591741 0.1049036 -0.0851211
v 0.0559174 0.1049036 -0.0851211
v 0.0559174 0.1020443 -0.08852872
v 0.06133597 0.1118834 -0.09678456
v 0.06133597 0.1147424 -0.09337693
v -0.061336 0.1147424 -0.09337693
v -0.061336 0.1118834 -0.09678456
v -0.1116892 -0.04898718 0.01346141
v -0.04654044 -0.09735604 0.05985457
v -0.04654044 -0.1002154 0.05644722
v -0.1116892 -0.04612782 0.01686904
v -0.111689 0.0217634 -0.04590516
v -0.111689 0.02462277 -0.04249781
v -0.04654044 0.07299162 -0.08889097
v -0.04654044 0.07585099 -0.08548334
v -0.04134788 -0.0908443 0.04858384
v -0.04134788 -0.08798493 0.05199118
v -0.09941876 -0.04232214 0.01367569
v -0.09941876 -0.04518151 0.01026833
v -0.09941876 0.02081709 -0.03930446
v -0.09941876 0.01795802 -0.04271208
v -0.04134788 0.06647988 -0.07762024
v -0.04134788 0.06362052 -0.08102758
v -0.04134788 0.06362052 -0.08102758
v -0.04134788 0.06647988 -0.07762024
v 0.04134786 0.06647988 -0.07762024
v 0.04134786 0.06362052 -0.08102758
v 0.04654042 0.07299162 -0.08889097
v 0.04654042 0.07585099 -0.08548334
v -0.04654044 0.07585099 -0.08548334
v -0.04654044 0.07299162 -0.08889097
v 0.133813 -0.04365197 0.03372505
v 0.0559174 -0.1020443 0.08852874
v 0.0559174 -0.1049036 0.08512111
v 0.133813 -0.04079261 0.0371324
v 0.133813 0.04079261 -0.03713239
v 0.133813 0.04365198 -0.03372505
v 0.0559174 0.1020443 -0.08852872
v 0.0559174 0.1049036 -0.0851211
v 0.06133597 -0.1147424 0.09337695
v 0.06133597 -0.1118833 0.09678458
v 0.1466569 -0.04479297 0.04048912
v 0.1466569 -0.04765205 0.03708178
v 0.1466569 0.04765207 -0.03708176
v 0.1466569 0.04479298 -0.0404891
v 0.06133597 0.1147424 -0.09337693
v 0.06133597 0.1118834 -0.09678456
v 0.09941874 -0.04518151 0.01026833
v 0.04134786 -0.08798493 0.05199118
v 0.04134786 -0.0908443 0.04858384
v 0.09941874 -0.04232214 0.01367569
v 0.09941874 0.01795802 -0.04271208
v 0.09941874 0.02081709 -0.03930446
v 0.04134786 0.06362052 -0.08102758
v 0.04134786 0.06647988 -0.07762024
v 0.04654042 -0.1002154 0.05644722
v 0.04654042 -0.09735604 0.05985457
v 0.1116889 -0.04612782 0.01686904
v 0.1116889 -0.04898718 0.01346141
v 0.1116889 0.02462277 -0.04249781
v 0.1116889 0.0217634 -0.04590516
v 0.04654042 0.07585099 -0.08548334
v 0.04654042 0.07299162 -0.08889097
v 0.0559174 -0.1049036 0.08512111
v 0.0559174 -0.1020443 0.08852874
v -0.05591741 -0.1020443 0.08852874
v -0.05591741 -0.1049036 0.08512139
v -0.061336 -0.1147424 0.09337723
v -0.061336 -0.1118833 0.09678458
v 0.06133597 -0.1118833 0.09678458
v 0.06133597 -0.1147424 0.09337695
v 0.04134786 -0.0908443 0.04858384
v 0.04134786 -0.08798493 0.05199118
v -0.04134788 -0.08798493 0.05199118
v -0.04134788 -0.0908443 0.04858384
v -0.04654044 -0.1002154 0.05644722
v -0.04654044 -0.09735604 0.05985457
v 0.04654042 -0.09735604 0.05985457
v 0.04654042 -0.1002154 0.05644722
v 9.685755E-07 -0.04673455 0.01157102
v 9.685755E-07 -0.04387546 0.01497865
v -0.01113325 -0.05473052 0.02408709
v -0.01113325 -0.05758988 0.02067974
v -0.01644106 -0.0615799 0.02983434
v -0.01644106 -0.06443926 0.026427
v 9.685755E-07 -0.07928461 0.04469033
v 9.685755E-07 -0.08214369 0.04128298
v 9.685755E-07 -0.08214369 0.04128298
v 9.685755E-07 -0.07928461 0.04469033
v 0.016443 -0.0615799 0.02983434
v 0.016443 -0.06443926 0.026427
v 0.01113519 -0.05473052 0.02408709
v 0.01113519 -0.05758988 0.02067974
v 9.685755E-07 -0.04387546 0.01497865
v 9.685755E-07 -0.04673455 0.01157102
v 0.0574089 -0.005083591 -0.02337825
v 0.04323853 -0.01075336 -0.0128141
v 0.04323853 -0.01361273 -0.01622145
v 0.0574089 -0.002224237 -0.01997091
v 0.06635007 -0.001017213 -0.02679035
v 0.06635007 0.001841873 -0.02338272
v 0.08946189 -0.01361273 -0.01622145
v 0.08946189 -0.01075365 -0.0128141
v 0.06635007 -0.02620796 -0.005652562
v 0.08946189 -0.01075365 -0.0128141
v 0.08946189 -0.01361273 -0.01622145
v 0.06635007 -0.02334888 -0.002245218
v 0.0574089 -0.02214186 -0.009064659
v 0.0574089 -0.01928277 -0.005657032
v 0.04323853 -0.01361273 -0.01622145
v 0.04323853 -0.01075336 -0.0128141
v -0.05740891 -0.02214046 -0.009065777
v -0.04323855 -0.01075196 -0.01281522
v -0.04323855 -0.01361133 -0.01622257
v -0.05740891 -0.01928137 -0.005658433
v -0.06635009 -0.02620656 -0.005653962
v -0.06635009 -0.02334748 -0.002246335
v -0.08946191 -0.01361133 -0.01622257
v -0.08946191 -0.01075196 -0.01281522
v -0.06635009 -0.001015812 -0.02679147
v -0.08946191 -0.01075196 -0.01281522
v -0.08946191 -0.01361133 -0.01622257
v -0.06635009 0.001843259 -0.02338412
v -0.05740891 -0.005081922 -0.02337965
v -0.05740891 -0.002222836 -0.01997203
v -0.04323855 -0.01361133 -0.01622257
v -0.04323855 -0.01075196 -0.01281522
v -9.834766E-07 0.01951078 -0.04401533
v -9.834766E-07 0.02236985 -0.04060771
v 0.01113324 0.03322519 -0.04971643
v 0.01113324 0.03036582 -0.05312377
v 0.01644103 0.04007456 -0.05546369
v 0.01644103 0.0372152 -0.05887103
v -9.834766E-07 0.057779 -0.07031966
v -9.834766E-07 0.05491991 -0.07372701
v -9.834766E-07 0.05491991 -0.07372701
v -9.834766E-07 0.057779 -0.07031966
v -0.01644301 0.04007456 -0.05546369
v -0.01644301 0.0372152 -0.05887103
v -0.01113521 0.03322519 -0.04971643
v -0.01113521 0.03036582 -0.05312377
v -9.834766E-07 0.02236985 -0.04060771
v -9.834766E-07 0.01951078 -0.04401533
v -0.05591741 0.1049036 -0.0851211
v -0.146657 0.04765207 -0.03708176
v -0.061336 0.1147424 -0.09337693
v 0.06133597 0.1147424 -0.09337693
v -0.1338131 0.04365198 -0.03372505
v 0.0559174 0.1049036 -0.0851211
v -0.146657 -0.04479297 0.04048912
v 0.1466569 0.04765207 -0.03708176
v -0.1338131 -0.04079261 0.0371324
v 0.133813 0.04365198 -0.03372505
v 0.1466569 -0.04479297 0.04048912
v 0.133813 -0.04079261 0.0371324
v 0.06133597 -0.1118833 0.09678458
v 0.0559174 -0.1020443 0.08852874
v -0.061336 -0.1118833 0.09678458
v -0.05591741 -0.1020443 0.08852874
v -0.04134788 0.06647988 -0.07762024
v -0.111689 0.02462277 -0.04249781
v -0.04654044 0.07585099 -0.08548334
v 0.04654042 0.07585099 -0.08548334
v -0.09941876 0.02081709 -0.03930446
v 0.04134786 0.06647988 -0.07762024
v -0.1116892 -0.04612782 0.01686904
v 0.1116889 0.02462277 -0.04249781
v -0.09941876 -0.04232214 0.01367569
v 0.09941874 0.02081709 -0.03930446
v 0.1116889 -0.04612782 0.01686904
v 0.09941874 -0.04232214 0.01367569
v 0.04654042 -0.09735604 0.05985457
v 0.04134786 -0.08798493 0.05199118
v -0.04654044 -0.09735604 0.05985457
v -0.04134788 -0.08798493 0.05199118
v 9.685755E-07 -0.06157626 0.02983128
v 0.016443 -0.0615799 0.02983434
v 9.685755E-07 -0.07928461 0.04469033
v -0.01644106 -0.0615799 0.02983434
v 0.006470203 -0.05458394 0.02396429
v 0.01113519 -0.05473052 0.02408709
v -0.006468251 -0.05458394 0.02396429
v -0.01113325 -0.05473052 0.02408709
v 9.685755E-07 -0.04387546 0.01497865
v 9.685755E-07 -0.04759163 0.01809676
v 0.04323853 -0.01075336 -0.0128141
v 0.05721757 -0.005797744 -0.01697224
v 0.04808982 -0.01075336 -0.0128141
v 0.05721757 -0.01570928 -0.008655697
v 0.0574089 -0.002224237 -0.01997091
v 0.0574089 -0.01928277 -0.005657032
v 0.06635007 0.001841873 -0.02338272
v 0.06635007 -0.02334888 -0.002245218
v 0.06634531 -0.01075336 -0.0128141
v 0.08946189 -0.01075365 -0.0128141
v -0.04323855 -0.01075196 -0.01281522
v -0.05721758 -0.01570788 -0.008656815
v -0.04808983 -0.01075196 -0.01281522
v -0.05721758 -0.005796343 -0.01697364
v -0.05740891 -0.01928137 -0.005658433
v -0.05740891 -0.002222836 -0.01997203
v -0.06635009 -0.02334748 -0.002246335
v -0.06635009 0.001843259 -0.02338412
v -0.06634533 -0.01075196 -0.01281522
v -0.08946191 -0.01075196 -0.01281522
v -9.834766E-07 0.02236985 -0.04060771
v -9.834766E-07 0.02608602 -0.04372609
v 0.006468236 0.03307833 -0.04959335
v -0.006470218 0.03307833 -0.04959335
v 0.01113324 0.03322519 -0.04971643
v -0.01113521 0.03322519 -0.04971643
v 0.01644103 0.04007456 -0.05546369
v -0.01644301 0.04007456 -0.05546369
v -9.834766E-07 0.04007092 -0.05546061
v -9.834766E-07 0.057779 -0.07031966
v -0.006468251 -0.05744303 0.02055667
v -0.006468251 -0.05458394 0.02396429
v 9.685755E-07 -0.04759163 0.01809676
v 9.685755E-07 -0.05045071 0.01468942
v 9.685755E-07 -0.06443562 0.02642393
v 0.006470203 -0.05458394 0.02396429
v 9.685755E-07 -0.06157626 0.02983128
v 0.006470203 -0.05744303 0.02055667
v 0.04808982 -0.01361273 -0.01622145
v 0.04808982 -0.01075336 -0.0128141
v 0.05721757 -0.005797744 -0.01697224
v 0.05721757 -0.008656815 -0.02037987
v 0.05721757 -0.01856835 -0.01206304
v 0.06634531 -0.01075336 -0.0128141
v 0.05721757 -0.01570928 -0.008655697
v 0.06634531 -0.01361273 -0.01622145
v -0.04808983 -0.01361133 -0.01622257
v -0.04808983 -0.01075196 -0.01281522
v -0.05721758 -0.01570788 -0.008656815
v -0.05721758 -0.01856695 -0.01206444
v -0.05721758 -0.008655414 -0.02038099
v -0.06634533 -0.01075196 -0.01281522
v -0.05721758 -0.005796343 -0.01697364
v -0.06634533 -0.01361133 -0.01622257
v 0.006468236 0.03021926 -0.0530007
v -9.834766E-07 0.02608602 -0.04372609
v -9.834766E-07 0.02322693 -0.04713344
v 0.006468236 0.03307833 -0.04959335
v -0.006470218 0.03307833 -0.04959335
v -9.834766E-07 0.03721157 -0.05886795
v -0.006470218 0.03021926 -0.0530007
v -9.834766E-07 0.04007092 -0.05546061
vt 0.9501843 0.6852217
vt 0.6882841 0.9540643
vt 0.6882841 0.9540643
vt 0.9501843 0.6852217
vt 0.9501843 0.3147784
vt 0.9501843 0.3147784
vt 0.6882841 0.04593576
vt 0.6882841 0.04593576
vt 0.6716417 0.9146407
vt 0.6716417 0.9146407
vt 0.9107607 0.669189
vt 0.9107607 0.669189
vt 0.9107607 0.3308111
vt 0.9107607 0.3308111
vt 0.6716417 0.08535936
vt 0.6716417 0.08535936
vt 0.6716417 0.08535936
vt 0.6716417 0.08535936
vt 0.3283584 0.08535936
vt 0.3283584 0.08535936
vt 0.311716 0.04593576
vt 0.311716 0.04593576
vt 0.6882841 0.04593576
vt 0.6882841 0.04593576
vt 0.8428468 0.6417518
vt 0.6428604 0.8470317
vt 0.6428604 0.8470317
vt 0.8428468 0.6417518
vt 0.8428468 0.3582483
vt 0.8428468 0.3582483
vt 0.6428604 0.1529684
vt 0.6428604 0.1529684
vt 0.6269246 0.8094788
vt 0.6269246 0.8094788
vt 0.8051831 0.626509
vt 0.8051831 0.626509
vt 0.8051831 0.3734912
vt 0.8051831 0.3734912
vt 0.6269246 0.1905213
vt 0.6269246 0.1905213
vt 0.6269246 0.1905213
vt 0.6269246 0.1905213
vt 0.3730755 0.1905213
vt 0.3730755 0.1905213
vt 0.3571397 0.1529684
vt 0.3571397 0.1529684
vt 0.6428604 0.1529684
vt 0.6428604 0.1529684
vt 0.08923937 0.669189
vt 0.3283584 0.9146407
vt 0.3283584 0.9146407
vt 0.08923937 0.669189
vt 0.08923937 0.3308111
vt 0.08923937 0.3308111
vt 0.3283584 0.08535936
vt 0.3283584 0.08535936
vt 0.311716 0.9540643
vt 0.311716 0.9540643
vt 0.04981577 0.6852217
vt 0.04981577 0.6852217
vt 0.04981577 0.3147784
vt 0.04981577 0.3147784
vt 0.311716 0.04593576
vt 0.311716 0.04593576
vt 0.194817 0.626509
vt 0.3730755 0.8094788
vt 0.3730755 0.8094788
vt 0.194817 0.626509
vt 0.194817 0.3734912
vt 0.194817 0.3734912
vt 0.3730755 0.1905213
vt 0.3730755 0.1905213
vt 0.3571397 0.8470317
vt 0.3571397 0.8470317
vt 0.1571533 0.6417518
vt 0.1571533 0.6417518
vt 0.1571533 0.3582483
vt 0.1571533 0.3582483
vt 0.3571397 0.1529684
vt 0.3571397 0.1529684
vt 0.3283584 0.9146407
vt 0.3283584 0.9146407
vt 0.6716417 0.9146407
vt 0.6716417 0.9146407
vt 0.6882841 0.9540643
vt 0.6882841 0.9540643
vt 0.311716 0.9540643
vt 0.311716 0.9540643
vt 0.3730755 0.8094788
vt 0.3730755 0.8094788
vt 0.6269246 0.8094788
vt 0.6269246 0.8094788
vt 0.6428604 0.8470317
vt 0.6428604 0.8470317
vt 0.3571397 0.8470317
vt 0.3571397 0.8470317
vt 0.4999931 0.6327308
vt 0.4999931 0.6327308
vt 0.5341787 0.6762284
vt 0.5341787 0.6762284
vt 0.5504747 0.7036794
vt 0.5504747 0.7036794
vt 0.4999931 0.7746142
vt 0.4999931 0.7746142
vt 0.4999931 0.7746142
vt 0.4999931 0.7746142
vt 0.4495254 0.7036794
vt 0.4495254 0.7036794
vt 0.4658214 0.6762284
vt 0.4658214 0.6762284
vt 0.4999931 0.6327308
vt 0.4999931 0.6327308
vt 0.3237717 0.4658214
vt 0.3672693 0.500007
vt 0.3672693 0.500007
vt 0.3237717 0.4658214
vt 0.2963207 0.4495254
vt 0.2963207 0.4495254
vt 0.2253859 0.500007
vt 0.2253859 0.500007
vt 0.2963207 0.5504747
vt 0.2253859 0.500007
vt 0.2253859 0.500007
vt 0.2963207 0.5504747
vt 0.3237717 0.5341787
vt 0.3237717 0.5341787
vt 0.3672693 0.500007
vt 0.3672693 0.500007
vt 0.6762284 0.5341787
vt 0.6327308 0.4999931
vt 0.6327308 0.4999931
vt 0.6762284 0.5341787
vt 0.7036794 0.5504747
vt 0.7036794 0.5504747
vt 0.7746142 0.4999931
vt 0.7746142 0.4999931
vt 0.7036794 0.4495254
vt 0.7746142 0.4999931
vt 0.7746142 0.4999931
vt 0.7036794 0.4495254
vt 0.6762284 0.4658214
vt 0.6762284 0.4658214
vt 0.6327308 0.4999931
vt 0.6327308 0.4999931
vt 0.500007 0.3672693
vt 0.500007 0.3672693
vt 0.4658214 0.3237717
vt 0.4658214 0.3237717
vt 0.4495254 0.2963207
vt 0.4495254 0.2963207
vt 0.500007 0.2253859
vt 0.500007 0.2253859
vt 0.500007 0.2253859
vt 0.500007 0.2253859
vt 0.5504747 0.2963207
vt 0.5504747 0.2963207
vt 0.5341787 0.3237717
vt 0.5341787 0.3237717
vt 0.500007 0.3672693
vt 0.500007 0.3672693
vt 0.6716417 0.08535936
vt 0.9501843 0.3147784
vt 0.6882841 0.04593576
vt 0.311716 0.04593576
vt 0.9107607 0.3308111
vt 0.3283584 0.08535936
vt 0.9501843 0.6852217
vt 0.04981577 0.3147784
vt 0.9107607 0.669189
vt 0.08923937 0.3308111
vt 0.04981577 0.6852217
vt 0.08923937 0.669189
vt 0.311716 0.9540643
vt 0.3283584 0.9146407
vt 0.6882841 0.9540643
vt 0.6716417 0.9146407
vt 0.6269246 0.1905213
vt 0.8428468 0.3582483
vt 0.6428604 0.1529684
vt 0.3571397 0.1529684
vt 0.8051831 0.3734912
vt 0.3730755 0.1905213
vt 0.8428468 0.6417518
vt 0.1571533 0.3582483
vt 0.8051831 0.626509
vt 0.194817 0.3734912
vt 0.1571533 0.6417518
vt 0.194817 0.626509
vt 0.3571397 0.8470317
vt 0.3730755 0.8094788
vt 0.6428604 0.8470317
vt 0.6269246 0.8094788
vt 0.4999931 0.7036656
vt 0.4495254 0.7036794
vt 0.4999931 0.7746142
vt 0.5504747 0.7036794
vt 0.4801358 0.6756325
vt 0.4658214 0.6762284
vt 0.5198504 0.6756325
vt 0.5341787 0.6762284
vt 0.4999931 0.6327308
vt 0.4999931 0.6476133
vt 0.3672693 0.500007
vt 0.3243676 0.4801497
vt 0.3523867 0.500007
vt 0.3243676 0.5198643
vt 0.3237717 0.4658214
vt 0.3237717 0.5341787
vt 0.2963207 0.4495254
vt 0.2963207 0.5504747
vt 0.2963346 0.500007
vt 0.2253859 0.500007
vt 0.6327308 0.4999931
vt 0.6756325 0.5198504
vt 0.6476133 0.4999931
vt 0.6756325 0.4801358
vt 0.6762284 0.5341787
vt 0.6762284 0.4658214
vt 0.7036794 0.5504747
vt 0.7036794 0.4495254
vt 0.7036656 0.4999931
vt 0.7746142 0.4999931
vt 0.500007 0.3672693
vt 0.500007 0.3523867
vt 0.4801497 0.3243676
vt 0.5198643 0.3243676
vt 0.4658214 0.3237717
vt 0.5341787 0.3237717
vt 0.4495254 0.2963207
vt 0.5504747 0.2963207
vt 0.500007 0.2963346
vt 0.500007 0.2253859
vt 0.5198504 0.6756325
vt 0.5198504 0.6756325
vt 0.4999931 0.6476133
vt 0.4999931 0.6476133
vt 0.4999931 0.7036656
vt 0.4801358 0.6756325
vt 0.4999931 0.7036656
vt 0.4801358 0.6756325
vt 0.3523867 0.500007
vt 0.3523867 0.500007
vt 0.3243676 0.4801497
vt 0.3243676 0.4801497
vt 0.3243676 0.5198643
vt 0.2963346 0.500007
vt 0.3243676 0.5198643
vt 0.2963346 0.500007
vt 0.6476133 0.4999931
vt 0.6476133 0.4999931
vt 0.6756325 0.5198504
vt 0.6756325 0.5198504
vt 0.6756325 0.4801358
vt 0.7036656 0.4999931
vt 0.6756325 0.4801358
vt 0.7036656 0.4999931
vt 0.4801497 0.3243676
vt 0.500007 0.3523867
vt 0.500007 0.3523867
vt 0.4801497 0.3243676
vt 0.5198643 0.3243676
vt 0.500007 0.2963346
vt 0.5198643 0.3243676
vt 0.500007 0.2963346
vn -0.9257083 -0.2883674 0.2447619
vn -0.7165197 -0.5347016 0.4479885
vn -0.7165197 -0.5347016 0.4479885
vn -0.9257083 -0.2883674 0.2447619
vn -0.9257083 0.2883674 -0.2447619
vn -0.9257083 0.2883674 -0.2447619
vn -0.7165197 0.5347016 -0.4479885
vn -0.7165197 0.5347016 -0.4479885
vn 0.7165197 0.5347016 -0.4479885
vn 0.7165197 0.5347016 -0.4479885
vn 0.9257082 0.2883674 -0.2447622
vn 0.9257082 0.2883674 -0.2447622
vn 0.9257082 -0.2883674 0.2447622
vn 0.9257082 -0.2883674 0.2447622
vn 0.7165197 -0.5347016 0.4479885
vn 0.7165197 -0.5347016 0.4479885
vn 0.0009775162 -0.7653955 0.6435594
vn 0.0009775162 -0.7653955 0.6435594
vn 0.0009775162 -0.7653955 0.6435594
vn 0.0009775162 -0.7653955 0.6435594
vn -0.0009775162 0.7653955 -0.6435594
vn -0.0009775162 0.7653955 -0.6435594
vn -0.0009775162 0.7653955 -0.6435594
vn -0.0009775162 0.7653955 -0.6435594
vn -0.9257083 -0.2883674 0.2447619
vn -0.7165197 -0.5347016 0.4479885
vn -0.7165197 -0.5347016 0.4479885
vn -0.9257083 -0.2883674 0.2447619
vn -0.9257083 0.2883674 -0.2447619
vn -0.9257083 0.2883674 -0.2447619
vn -0.7165197 0.5347016 -0.4479885
vn -0.7165197 0.5347016 -0.4479885
vn 0.7165197 0.5347016 -0.4479885
vn 0.7165197 0.5347016 -0.4479885
vn 0.9257082 0.2883674 -0.2447622
vn 0.9257082 0.2883674 -0.2447622
vn 0.9257082 -0.2883674 0.2447622
vn 0.9257082 -0.2883674 0.2447622
vn 0.7165197 -0.5347016 0.4479885
vn 0.7165197 -0.5347016 0.4479885
vn -0.0009775162 -0.7653955 0.6435594
vn -0.0009775162 -0.7653955 0.6435594
vn -0.0009775162 -0.7653955 0.6435594
vn -0.0009775162 -0.7653955 0.6435594
vn -0.0009775162 0.7653955 -0.6435594
vn -0.0009775162 0.7653955 -0.6435594
vn -0.0009775162 0.7653955 -0.6435594
vn -0.0009775162 0.7653955 -0.6435594
vn -0.9257083 0.2883674 -0.2447619
vn -0.7165197 0.5347016 -0.4479885
vn -0.7165197 0.5347016 -0.4479885
vn -0.9257083 0.2883674 -0.2447619
vn -0.9257083 -0.2883674 0.2447619
vn -0.9257083 -0.2883674 0.2447619
vn -0.7165197 -0.5347016 0.4479885
vn -0.7165197 -0.5347016 0.4479885
vn 0.7165197 -0.5347016 0.4479885
vn 0.7165197 -0.5347016 0.4479885
vn 0.9257082 -0.2883674 0.2447622
vn 0.9257082 -0.2883674 0.2447622
vn 0.9257082 0.2883674 -0.2447622
vn 0.9257082 0.2883674 -0.2447622
vn 0.7165197 0.5347016 -0.4479885
vn 0.7165197 0.5347016 -0.4479885
vn -0.9257083 0.2883674 -0.2447619
vn -0.7165197 0.5347016 -0.4479885
vn -0.7165197 0.5347016 -0.4479885
vn -0.9257083 0.2883674 -0.2447619
vn -0.9257083 -0.2883674 0.2447619
vn -0.9257083 -0.2883674 0.2447619
vn -0.7165197 -0.5347016 0.4479885
vn -0.7165197 -0.5347016 0.4479885
vn 0.7165197 -0.5347016 0.4479885
vn 0.7165197 -0.5347016 0.4479885
vn 0.9257082 -0.2883674 0.2447622
vn 0.9257082 -0.2883674 0.2447622
vn 0.9257082 0.2883674 -0.2447622
vn 0.9257082 0.2883674 -0.2447622
vn 0.7165197 0.5347016 -0.4479885
vn 0.7165197 0.5347016 -0.4479885
vn -0.0009775162 0.7653955 -0.6435594
vn -0.0009775162 0.7653955 -0.6435594
vn -0.0009775162 0.7653955 -0.6435594
vn -0.0009775162 0.7653955 -0.6435594
vn -0.0009775162 -0.7653955 0.6435594
vn -0.0009775162 -0.7653955 0.6435594
vn -0.0009775162 -0.7653955 0.6435594
vn -0.0009775162 -0.7653955 0.6435594
vn -0.0009775162 0.7653955 -0.6435594
vn -0.0009775162 0.7653955 -0.6435594
vn -0.0009775162 0.7653955 -0.6435594
vn -0.0009775162 0.7653955 -0.6435594
vn -0.0009775162 -0.7653955 0.6435594
vn -0.0009775162 -0.7653955 0.6435594
vn -0.0009775162 -0.7653955 0.6435594
vn -0.0009775162 -0.7653955 0.6435594
vn -0.7869009 0.4740956 -0.3949942
vn -0.7869009 0.4740956 -0.3949942
vn -0.8240465 0.4330399 -0.3652722
vn -0.8240465 0.4330399 -0.3652722
vn -0.9994802 -0.03224128 0
vn -0.9994802 -0.03224128 0
vn -0.8142713 -0.4447701 0.3730171
vn -0.8142713 -0.4447701 0.3730171
vn 0.8142713 -0.4447701 0.3730171
vn 0.8142713 -0.4447701 0.3730171
vn 0.9994802 -0.03224128 0
vn 0.9994802 -0.03224128 0
vn 0.8240465 0.4330399 -0.3652722
vn 0.8240465 0.4330399 -0.3652722
vn 0.7869009 0.4740956 -0.3949942
vn 0.7869009 0.4740956 -0.3949942
vn -0.5659821 0.6324533 -0.5288355
vn -0.618768 0.6031277 -0.5033519
vn -0.618768 0.6031277 -0.5033519
vn -0.5659821 0.6324533 -0.5288355
vn 0.0420332 0.7653955 -0.642186
vn 0.0420332 0.7653955 -0.642186
vn 0.5796673 0.6246331 -0.5232775
vn 0.5796673 0.6246331 -0.5232775
vn 0.0420332 -0.7653955 0.642186
vn 0.5796673 -0.6246331 0.5232774
vn 0.5796673 -0.6246331 0.5232774
vn 0.0420332 -0.7653955 0.642186
vn -0.5659821 -0.6324533 0.5288357
vn -0.5659821 -0.6324533 0.5288357
vn -0.618768 -0.6031278 0.5033519
vn -0.618768 -0.6031278 0.5033519
vn 0.5659821 -0.6324533 0.5288357
vn 0.618768 -0.6031278 0.5033517
vn 0.618768 -0.6031278 0.5033517
vn 0.5659821 -0.6324533 0.5288357
vn -0.0420332 -0.7653955 0.642186
vn -0.0420332 -0.7653955 0.642186
vn -0.5796673 -0.6246331 0.5232774
vn -0.5796673 -0.6246331 0.5232774
vn -0.0420332 0.7653955 -0.642186
vn -0.5796673 0.6246331 -0.5232775
vn -0.5796673 0.6246331 -0.5232775
vn -0.0420332 0.7653955 -0.642186
vn 0.5659821 0.6324533 -0.5288355
vn 0.5659821 0.6324533 -0.5288355
vn 0.618768 0.6031277 -0.5033519
vn 0.618768 0.6031277 -0.5033519
vn 0.7869009 -0.4740956 0.3949942
vn 0.7869009 -0.4740956 0.3949942
vn 0.8240465 -0.4330398 0.3652723
vn 0.8240465 -0.4330398 0.3652723
vn 0.9994802 0.03224128 0
vn 0.9994802 0.03224128 0
vn 0.8142713 0.4447701 -0.3730171
vn 0.8142713 0.4447701 -0.3730171
vn -0.8142713 0.4447701 -0.3730171
vn -0.8142713 0.4447701 -0.3730171
vn -0.9994802 0.03224128 0
vn -0.9994802 0.03224128 0
vn -0.8240465 -0.4330398 0.3652723
vn -0.8240465 -0.4330398 0.3652723
vn -0.7869009 -0.4740956 0.3949942
vn -0.7869009 -0.4740956 0.3949942
vn 0.0009775162 0.6422285 0.7665126
vn 0.0009775162 0.6422285 0.7665126
vn 0.0009775162 0.6422285 0.7665126
vn -0.0009775162 0.6422285 0.7665126
vn 0.0009775162 0.6422285 0.7665126
vn -0.0009775162 0.6422285 0.7665126
vn 0.0009775162 0.6422285 0.7665126
vn -0.0009775162 0.6422285 0.7665126
vn 0.0009775162 0.6422285 0.7665126
vn -0.0009775162 0.6422285 0.7665126
vn -0.0009775162 0.6422285 0.7665126
vn -0.0009775162 0.6422285 0.7665126
vn -0.0009775162 0.6422285 0.7665126
vn -0.0009775162 0.6422285 0.7665126
vn 0.0009775162 0.6422285 0.7665126
vn 0.0009775162 0.6422285 0.7665126
vn -0.0009775162 0.6422285 0.7665126
vn 0.0009775162 0.6422285 0.7665126
vn -0.0009775162 0.6422285 0.7665126
vn -0.0009775162 0.6422285 0.7665126
vn 0.0009775162 0.6422285 0.7665126
vn -0.0009775162 0.6422285 0.7665126
vn 0.0009775162 0.6422285 0.7665126
vn -0.0009775162 0.6422285 0.7665126
vn 0.0009775162 0.6422285 0.7665126
vn -0.0009775162 0.6422285 0.7665126
vn -0.0009775162 0.6422285 0.7665126
vn -0.0009775162 0.6422285 0.7665126
vn -0.0009775162 0.6422285 0.7665126
vn -0.0009775162 0.6422285 0.7665126
vn 0.0009775162 0.6422285 0.7665126
vn 0.0009775162 0.6422285 0.7665126
vn -0.0009775162 0.6422285 0.7665126
vn -0.0009775162 0.6422285 0.7665126
vn -0.0009775162 0.6422285 0.7665126
vn 0.0009775162 0.6422285 0.7665126
vn 0.0009775162 0.6422285 0.7665126
vn 0.0009775162 0.6422285 0.7665126
vn -0.0009775162 0.6422285 0.7665126
vn -0.0009775162 0.6422285 0.7665126
vn -0.0009775162 0.6422285 0.7665126
vn -0.0009775162 0.6422285 0.7665126
vn -0.0009775162 0.6422285 0.7665126
vn 0.0009775162 0.6422285 0.7665126
vn -0.0009775162 0.6422285 0.7665126
vn 0.0009775162 0.6422285 0.7665126
vn 0.0009775162 0.6422285 0.7665126
vn 0.0009775162 0.6422285 0.7665126
vn 0.0009775162 0.6422285 0.7665126
vn 0.0009775162 0.6422285 0.7665126
vn 0.0009775162 0.6422285 0.7665126
vn -0.0009775162 0.6422285 0.7665126
vn -0.0009775162 0.6422285 0.7665126
vn -0.0009775162 0.6422285 0.7665126
vn -0.0009775162 0.6422285 0.7665126
vn -0.0009775162 0.6422285 0.7665126
vn -0.0009775162 0.6422285 0.7665126
vn -0.0009775162 0.6422285 0.7665126
vn -0.0009775162 0.6422285 0.7665126
vn -0.0009775162 0.6422285 0.7665126
vn -0.0009775162 0.6422285 0.7665126
vn -0.0009775162 0.6422285 0.7665126
vn 0.0009775162 0.6422285 0.7665126
vn 0.0009775162 0.6422285 0.7665126
vn -0.0009775162 0.6422285 0.7665126
vn 0.0009775162 0.6422285 0.7665126
vn -0.0009775162 0.6422285 0.7665126
vn 0.0009775162 0.6422285 0.7665126
vn -0.0009775162 0.6422285 0.7665126
vn 0.0009775162 0.6422285 0.7665126
vn -0.0009775162 0.6422285 0.7665126
vn -0.0009775162 0.6422285 0.7665126
vn 0.9999995 0.0009775162 0
vn 0.9999995 0.0009775162 0
vn -0.0009775162 -0.7653955 0.6435594
vn -0.0009775162 -0.7653955 0.6435594
vn -0.0009775162 0.7653955 -0.6435594
vn -0.9999995 0.0009775162 0
vn -0.0009775162 0.7653955 -0.6435594
vn -0.9999995 0.0009775162 0
vn 0.9999995 0.0009775162 0
vn 0.9999995 -0.0009775162 0
vn -0.0009775162 -0.7653955 0.6435594
vn -0.0009775162 -0.7653955 0.6435594
vn -0.0009775162 0.7653955 -0.6435594
vn -0.9999995 0.0009775162 0
vn -0.0009775162 0.7653955 -0.6435594
vn -0.9999995 0.0009775162 0
vn -0.9999995 0.0009775162 0
vn -0.9999995 -0.0009775162 0
vn 0.0009775162 0.7653955 -0.6435594
vn -0.0009775162 0.7653955 -0.6435594
vn -0.0009775162 -0.7653955 0.6435594
vn 0.9999995 0.0009775162 0
vn 0.0009775162 -0.7653955 0.6435594
vn 0.9999995 0.0009775162 0
vn -0.9999995 -0.0009775162 0
vn -0.0009775162 0.7653955 -0.6435594
vn -0.0009775162 0.7653955 -0.6435594
vn -0.9999995 -0.0009775162 0
vn 0.9999995 -0.0009775162 0
vn -0.0009775162 -0.7653955 0.6435594
vn 0.9999995 -0.0009775162 0
vn -0.0009775162 -0.7653955 0.6435594
g Chise_Original_Halo_0
f 3/3/3 2/2/2 1/1/1
f 2/2/2 4/4/4 1/1/1
f 1/1/1 4/4/4 5/5/5
f 4/4/4 6/6/6 5/5/5
f 5/5/5 6/6/6 7/7/7
f 6/6/6 8/8/8 7/7/7
f 11/11/11 10/10/10 9/9/9
f 12/12/12 11/11/11 9/9/9
f 13/13/13 11/11/11 12/12/12
f 14/14/14 13/13/13 12/12/12
f 15/15/15 13/13/13 14/14/14
f 16/16/16 15/15/15 14/14/14
f 19/19/19 18/18/18 17/17/17
f 20/20/20 19/19/19 17/17/17
f 23/23/23 22/22/22 21/21/21
f 24/24/24 23/23/23 21/21/21
f 27/27/27 26/26/26 25/25/25
f 26/26/26 28/28/28 25/25/25
f 25/25/25 28/28/28 29/29/29
f 28/28/28 30/30/30 29/29/29
f 29/29/29 30/30/30 31/31/31
f 30/30/30 32/32/32 31/31/31
f 35/35/35 34/34/34 33/33/33
f 36/36/36 35/35/35 33/33/33
f 37/37/37 35/35/35 36/36/36
f 38/38/38 37/37/37 36/36/36
f 39/39/39 37/37/37 38/38/38
f 40/40/40 39/39/39 38/38/38
f 43/43/43 42/42/42 41/41/41
f 44/44/44 43/43/43 41/41/41
f 47/47/47 46/46/46 45/45/45
f 48/48/48 47/47/47 45/45/45
f 51/51/51 50/50/50 49/49/49
f 50/50/50 52/52/52 49/49/49
f 49/49/49 52/52/52 53/53/53
f 52/52/52 54/54/54 53/53/53
f 53/53/53 54/54/54 55/55/55
f 54/54/54 56/56/56 55/55/55
f 59/59/59 58/58/58 57/57/57
f 60/60/60 59/59/59 57/57/57
f 61/61/61 59/59/59 60/60/60
f 62/62/62 61/61/61 60/60/60
f 63/63/63 61/61/61 62/62/62
f 64/64/64 63/63/63 62/62/62
f 67/67/67 66/66/66 65/65/65
f 66/66/66 68/68/68 65/65/65
f 65/65/65 68/68/68 69/69/69
f 68/68/68 70/70/70 69/69/69
f 69/69/69 70/70/70 71/71/71
f 70/70/70 72/72/72 71/71/71
f 75/75/75 74/74/74 73/73/73
f 76/76/76 75/75/75 73/73/73
f 77/77/77 75/75/75 76/76/76
f 78/78/78 77/77/77 76/76/76
f 79/79/79 77/77/77 78/78/78
f 80/80/80 79/79/79 78/78/78
f 83/83/83 82/82/82 81/81/81
f 84/84/84 83/83/83 81/81/81
f 87/87/87 86/86/86 85/85/85
f 88/88/88 87/87/87 85/85/85
f 91/91/91 90/90/90 89/89/89
f 92/92/92 91/91/91 89/89/89
f 95/95/95 94/94/94 93/93/93
f 96/96/96 95/95/95 93/93/93
f 99/99/99 98/98/98 97/97/97
f 100/100/100 99/99/99 97/97/97
f 101/101/101 99/99/99 100/100/100
f 102/102/102 101/101/101 100/100/100
f 103/103/103 101/101/101 102/102/102
f 104/104/104 103/103/103 102/102/102
f 107/107/107 106/106/106 105/105/105
f 108/108/108 107/107/107 105/105/105
f 109/109/109 107/107/107 108/108/108
f 110/110/110 109/109/109 108/108/108
f 111/111/111 109/109/109 110/110/110
f 112/112/112 111/111/111 110/110/110
f 115/115/115 114/114/114 113/113/113
f 114/114/114 116/116/116 113/113/113
f 113/113/113 116/116/116 117/117/117
f 116/116/116 118/118/118 117/117/117
f 117/117/117 118/118/118 119/119/119
f 118/118/118 120/120/120 119/119/119
f 123/123/123 122/122/122 121/121/121
f 122/122/122 124/124/124 121/121/121
f 121/121/121 124/124/124 125/125/125
f 124/124/124 126/126/126 125/125/125
f 125/125/125 126/126/126 127/127/127
f 126/126/126 128/128/128 127/127/127
f 131/131/131 130/130/130 129/129/129
f 130/130/130 132/132/132 129/129/129
f 129/129/129 132/132/132 133/133/133
f 132/132/132 134/134/134 133/133/133
f 133/133/133 134/134/134 135/135/135
f 134/134/134 136/136/136 135/135/135
f 139/139/139 138/138/138 137/137/137
f 138/138/138 140/140/140 137/137/137
f 137/137/137 140/140/140 141/141/141
f 140/140/140 142/142/142 141/141/141
f 141/141/141 142/142/142 143/143/143
f 142/142/142 144/144/144 143/143/143
f 147/147/147 146/146/146 145/145/145
f 148/148/148 147/147/147 145/145/145
f 149/149/149 147/147/147 148/148/148
f 150/150/150 149/149/149 148/148/148
f 151/151/151 149/149/149 150/150/150
f 152/152/152 151/151/151 150/150/150
f 155/155/155 154/154/154 153/153/153
f 156/156/156 155/155/155 153/153/153
f 157/157/157 155/155/155 156/156/156
f 158/158/158 157/157/157 156/156/156
f 159/159/159 157/157/157 158/158/158
f 160/160/160 159/159/159 158/158/158
f 163/163/163 162/162/162 161/161/161
f 164/164/164 163/163/163 161/161/161
f 162/162/162 165/165/165 161/161/161
f 166/166/166 164/164/164 161/161/161
f 162/162/162 167/167/167 165/165/165
f 168/168/168 164/164/164 166/166/166
f 167/167/167 169/169/169 165/165/165
f 170/170/170 168/168/168 166/166/166
f 171/171/171 168/168/168 170/170/170
f 172/172/172 171/171/171 170/170/170
f 173/173/173 171/171/171 172/172/172
f 174/174/174 173/173/173 172/172/172
f 167/167/167 175/175/175 169/169/169
f 175/175/175 173/173/173 174/174/174
f 175/175/175 176/176/176 169/169/169
f 176/176/176 175/175/175 174/174/174
f 179/179/179 178/178/178 177/177/177
f 180/180/180 179/179/179 177/177/177
f 178/178/178 181/181/181 177/177/177
f 182/182/182 180/180/180 177/177/177
f 178/178/178 183/183/183 181/181/181
f 184/184/184 180/180/180 182/182/182
f 183/183/183 185/185/185 181/181/181
f 186/186/186 184/184/184 182/182/182
f 187/187/187 184/184/184 186/186/186
f 188/188/188 187/187/187 186/186/186
f 189/189/189 187/187/187 188/188/188
f 190/190/190 189/189/189 188/188/188
f 183/183/183 191/191/191 185/185/185
f 191/191/191 189/189/189 190/190/190
f 191/191/191 192/192/192 185/185/185
f 192/192/192 191/191/191 190/190/190
f 195/195/195 194/194/194 193/193/193
f 195/195/195 193/193/193 196/196/196
f 197/197/197 193/193/193 194/194/194
f 198/198/198 197/197/197 194/194/194
f 193/193/193 199/199/199 196/196/196
f 199/199/199 200/200/200 196/196/196
f 197/197/197 198/198/198 201/201/201
f 200/200/200 199/199/199 201/201/201
f 202/202/202 197/197/197 201/201/201
f 199/199/199 202/202/202 201/201/201
f 205/205/205 204/204/204 203/203/203
f 206/206/206 205/205/205 203/203/203
f 204/204/204 207/207/207 203/203/203
f 208/208/208 206/206/206 203/203/203
f 207/207/207 204/204/204 209/209/209
f 206/206/206 208/208/208 210/210/210
f 204/204/204 211/211/211 209/209/209
f 211/211/211 206/206/206 210/210/210
f 209/209/209 211/211/211 212/212/212
f 211/211/211 210/210/210 212/212/212
f 215/215/215 214/214/214 213/213/213
f 216/216/216 215/215/215 213/213/213
f 214/214/214 217/217/217 213/213/213
f 218/218/218 216/216/216 213/213/213
f 217/217/217 214/214/214 219/219/219
f 216/216/216 218/218/218 220/220/220
f 214/214/214 221/221/221 219/219/219
f 221/221/221 216/216/216 220/220/220
f 219/219/219 221/221/221 222/222/222
f 221/221/221 220/220/220 222/222/222
f 225/225/225 224/224/224 223/223/223
f 224/224/224 226/226/226 223/223/223
f 227/227/227 225/225/225 223/223/223
f 226/226/226 228/228/228 223/223/223
f 225/225/225 227/227/227 229/229/229
f 228/228/228 226/226/226 230/230/230
f 231/231/231 225/225/225 229/229/229
f 226/226/226 231/231/231 230/230/230
f 232/232/232 231/231/231 229/229/229
f 232/232/232 230/230/230 231/231/231
f 235/235/235 234/234/234 233/233/233
f 236/236/236 235/235/235 233/233/233
f 233/233/233 234/234/234 237/237/237
f 238/238/238 235/235/235 236/236/236
f 234/234/234 239/239/239 237/237/237
f 240/240/240 238/238/238 236/236/236
f 237/237/237 239/239/239 240/240/240
f 239/239/239 238/238/238 240/240/240
f 243/243/243 242/242/242 241/241/241
f 244/244/244 243/243/243 241/241/241
f 241/241/241 242/242/242 245/245/245
f 246/246/246 243/243/243 244/244/244
f 242/242/242 247/247/247 245/245/245
f 248/248/248 246/246/246 244/244/244
f 245/245/245 247/247/247 248/248/248
f 247/247/247 246/246/246 248/248/248
f 251/251/251 250/250/250 249/249/249
f 252/252/252 251/251/251 249/249/249
f 249/249/249 250/250/250 253/253/253
f 254/254/254 251/251/251 252/252/252
f 250/250/250 255/255/255 253/253/253
f 256/256/256 254/254/254 252/252/252
f 253/253/253 255/255/255 256/256/256
f 255/255/255 254/254/254 256/256/256
f 259/259/259 258/258/258 257/257/257
f 258/258/258 260/260/260 257/257/257
f 261/261/261 258/258/258 259/259/259
f 257/257/257 260/260/260 262/262/262
f 263/263/263 261/261/261 259/259/259
f 260/260/260 264/264/264 262/262/262
f 264/264/264 261/261/261 263/263/263
f 262/262/262 264/264/264 263/263/263
