g Chise_Original_Weapon01
v -0.008285947 -0.00828591 -0.02345388
v 2.235174E-08 -2.235174E-08 -0.02345388
v -0.01171809 -2.235174E-08 -0.02345388
v -5.960464E-08 -0.01171805 -0.02345388
v -0.008285947 0.008285947 -0.02345388
v 2.235174E-08 0.01171809 -0.02345388
v -0.01171809 -2.235174E-08 -0.02345388
v 0.00828591 0.008285947 -0.02345388
v 0.01171805 -2.235174E-08 -0.02345388
v 2.235174E-08 0.01171809 -0.02345388
v 0.00828591 -0.00828591 -0.02345388
v 0.01171805 -2.235174E-08 -0.02345388
v -5.960464E-08 -0.01171805 -0.02345388
v -0.008285947 -0.00828591 -0.02345388
v -5.960464E-08 -0.01171805 -0.01978051
v -5.960464E-08 -0.01171805 -0.02345388
v -0.008285947 -0.00828591 -0.01978051
v -0.01171809 -2.235174E-08 -0.02345388
v -0.008285947 -0.00828591 -0.01978051
v -0.008285947 -0.00828591 -0.02345388
v -0.01171809 -2.235174E-08 -0.01978051
v -0.008285947 0.008285947 -0.02345388
v -0.008285947 0.008285947 -0.01978042
v 2.235174E-08 0.01171809 -0.02345388
v -0.008285947 0.008285947 -0.01978042
v -0.008285947 0.008285947 -0.02345388
v 2.235174E-08 0.01171809 -0.01978051
v 0.00828591 0.008285947 -0.02345388
v 2.235174E-08 0.01171809 -0.01978051
v 2.235174E-08 0.01171809 -0.02345388
v 0.00828591 0.008285947 -0.01978051
v 0.01171805 -2.235174E-08 -0.02345388
v 0.01171805 -2.235174E-08 -0.01978051
v 0.00828591 -0.00828591 -0.02345388
v 0.00828591 -0.00828591 -0.01978051
v -5.960464E-08 -0.01171805 -0.02345388
v -5.960464E-08 -0.01171805 -0.01978051
v -0.008285947 -0.00828591 -0.01561107
v -5.960464E-08 -0.01171805 0.02345391
v -5.960464E-08 -0.01171805 -0.01561107
v -0.008285947 -0.00828591 0.02345391
v -0.01171809 -2.235174E-08 -0.01561107
v -0.008285947 -0.00828591 0.02345391
v -0.008285947 -0.00828591 -0.01561107
v -0.01171809 -2.235174E-08 0.02345391
v -0.008285947 0.008285947 -0.01561107
v -0.008285947 0.008285947 0.02345391
v 2.235174E-08 0.01171809 -0.01561107
v -0.008285947 0.008285947 0.02345391
v -0.008285947 0.008285947 -0.01561107
v 2.235174E-08 0.01171809 0.02345391
v 0.00828591 0.008285947 -0.01561107
v 2.235174E-08 0.01171809 0.02345391
v 2.235174E-08 0.01171809 -0.01561107
v 0.00828591 0.008285947 0.02345391
v 0.01171805 -2.235174E-08 -0.01561107
v 0.01171805 -2.235174E-08 0.02345391
v 0.00828591 -0.00828591 -0.01561107
v 0.00828591 -0.00828591 0.02345391
v -5.960464E-08 -0.01171805 -0.01561107
v -5.960464E-08 -0.01171805 0.02345391
v -0.007433198 -0.007433165 -0.01622662
v -5.960464E-08 -0.01051207 -0.01916496
v -0.007433198 -0.007433165 -0.01916496
v -5.960464E-08 -0.01051207 -0.01622662
v -0.007433198 -0.007433165 -0.01916496
v -0.0105121 -2.235174E-08 -0.01622662
v -0.007433198 -0.007433165 -0.01622662
v -0.0105121 -2.235174E-08 -0.01916496
v -0.007433198 0.007433198 -0.01622662
v -0.007433198 0.007433198 -0.01916496
v 2.235174E-08 0.0105121 -0.01622662
v -0.007433198 0.007433198 -0.01916496
v 2.235174E-08 0.0105121 -0.01916496
v -0.007433198 0.007433198 -0.01622662
v 2.235174E-08 0.0105121 -0.01916496
v 0.007433165 0.007433198 -0.01622662
v 2.235174E-08 0.0105121 -0.01622662
v 0.007433165 0.007433198 -0.01916496
v 0.01051207 -2.235174E-08 -0.01622662
v 0.01051207 -2.235174E-08 -0.01916496
v 0.007433165 -0.007433165 -0.01622662
v 0.007433165 -0.007433165 -0.01916496
v -5.960464E-08 -0.01051207 -0.01622662
v -5.960464E-08 -0.01051207 -0.01916496
v -5.960464E-08 -0.01171805 0.02345391
v 0.01171805 -2.235174E-08 0.02345391
v 0.00828591 -0.00828591 0.02345391
v -0.01171809 -2.235174E-08 0.02345391
v -0.008285947 -0.00828591 0.02345391
v 2.235174E-08 0.01171809 0.02345391
v 0.00828591 0.008285947 0.02345391
v -0.008285947 0.008285947 0.02345391
v 0.01851952 -0.00828591 -0.02345388
v 0.02680549 -2.235174E-08 -0.02345388
v 0.01508738 -2.235174E-08 -0.02345388
v 0.02680541 -0.01171805 -0.02345388
v 0.01851952 0.008285947 -0.02345388
v 0.02680549 0.01171809 -0.02345388
v 0.01508738 -2.235174E-08 -0.02345388
v 0.03509138 0.008285947 -0.02345388
v 0.03852352 -2.235174E-08 -0.02345388
v 0.02680549 0.01171809 -0.02345388
v 0.03509138 -0.00828591 -0.02345388
v 0.03852352 -2.235174E-08 -0.02345388
v 0.02680541 -0.01171805 -0.02345388
v 0.01851952 -0.00828591 -0.02345388
v 0.02680541 -0.01171805 -0.01978051
v 0.02680541 -0.01171805 -0.02345388
v 0.01851952 -0.00828591 -0.01978051
v 0.01508738 -2.235174E-08 -0.02345388
v 0.01851952 -0.00828591 -0.01978051
v 0.01851952 -0.00828591 -0.02345388
v 0.01508738 -2.235174E-08 -0.01978051
v 0.01851952 0.008285947 -0.02345388
v 0.01851952 0.008285947 -0.01978042
v 0.02680549 0.01171809 -0.02345388
v 0.01851952 0.008285947 -0.01978042
v 0.01851952 0.008285947 -0.02345388
v 0.02680549 0.01171809 -0.01978051
v 0.03509138 0.008285947 -0.02345388
v 0.02680549 0.01171809 -0.01978051
v 0.02680549 0.01171809 -0.02345388
v 0.03509138 0.008285947 -0.01978051
v 0.03852352 -2.235174E-08 -0.02345388
v 0.03852352 -2.235174E-08 -0.01978051
v 0.03509138 -0.00828591 -0.02345388
v 0.03509138 -0.00828591 -0.01978051
v 0.02680541 -0.01171805 -0.02345388
v 0.02680541 -0.01171805 -0.01978051
v 0.01851952 -0.00828591 -0.01561107
v 0.02680541 -0.01171805 0.02345391
v 0.02680541 -0.01171805 -0.01561107
v 0.01851952 -0.00828591 0.02345391
v 0.01508738 -2.235174E-08 -0.01561107
v 0.01851952 -0.00828591 0.02345391
v 0.01851952 -0.00828591 -0.01561107
v 0.01508738 -2.235174E-08 0.02345391
v 0.01851952 0.008285947 -0.01561107
v 0.01851952 0.008285947 0.02345391
v 0.02680549 0.01171809 -0.01561107
v 0.01851952 0.008285947 0.02345391
v 0.01851952 0.008285947 -0.01561107
v 0.02680549 0.01171809 0.02345391
v 0.03509138 0.008285947 -0.01561107
v 0.02680549 0.01171809 0.02345391
v 0.02680549 0.01171809 -0.01561107
v 0.03509138 0.008285947 0.02345391
v 0.03852352 -2.235174E-08 -0.01561107
v 0.03852352 -2.235174E-08 0.02345391
v 0.03509138 -0.00828591 -0.01561107
v 0.03509138 -0.00828591 0.02345391
v 0.02680541 -0.01171805 -0.01561107
v 0.02680541 -0.01171805 0.02345391
v 0.01937227 -0.007433165 -0.01622662
v 0.02680541 -0.01051207 -0.01916496
v 0.01937227 -0.007433165 -0.01916496
v 0.02680541 -0.01051207 -0.01622662
v 0.01937227 -0.007433165 -0.01916496
v 0.01629337 -2.235174E-08 -0.01622662
v 0.01937227 -0.007433165 -0.01622662
v 0.01629337 -2.235174E-08 -0.01916496
v 0.01937227 0.007433198 -0.01622662
v 0.01937227 0.007433198 -0.01916496
v 0.02680549 0.0105121 -0.01622662
v 0.01937227 0.007433198 -0.01916496
v 0.02680549 0.0105121 -0.01916496
v 0.01937227 0.007433198 -0.01622662
v 0.02680549 0.0105121 -0.01916496
v 0.03423864 0.007433198 -0.01622662
v 0.02680549 0.0105121 -0.01622662
v 0.03423864 0.007433198 -0.01916496
v 0.03731754 -2.235174E-08 -0.01622662
v 0.03731754 -2.235174E-08 -0.01916496
v 0.03423864 -0.007433165 -0.01622662
v 0.03423864 -0.007433165 -0.01916496
v 0.02680541 -0.01051207 -0.01622662
v 0.02680541 -0.01051207 -0.01916496
v 0.02680541 -0.01171805 0.02345391
v 0.03852352 -2.235174E-08 0.02345391
v 0.03509138 -0.00828591 0.02345391
v 0.01508738 -2.235174E-08 0.02345391
v 0.01851952 -0.00828591 0.02345391
v 0.02680549 0.01171809 0.02345391
v 0.03509138 0.008285947 0.02345391
v 0.01851952 0.008285947 0.02345391
v 0.04458535 -0.00828591 -0.02345388
v 0.05287132 -2.235174E-08 -0.02345388
v 0.04115321 -2.235174E-08 -0.02345388
v 0.05287123 -0.01171805 -0.02345388
v 0.04458535 0.008285947 -0.02345388
v 0.05287132 0.01171809 -0.02345388
v 0.04115321 -2.235174E-08 -0.02345388
v 0.0611572 0.008285947 -0.02345388
v 0.06458934 -2.235174E-08 -0.02345388
v 0.05287132 0.01171809 -0.02345388
v 0.0611572 -0.00828591 -0.02345388
v 0.06458934 -2.235174E-08 -0.02345388
v 0.05287123 -0.01171805 -0.02345388
v 0.04458535 -0.00828591 -0.02345388
v 0.05287123 -0.01171805 -0.01978051
v 0.05287123 -0.01171805 -0.02345388
v 0.04458535 -0.00828591 -0.01978051
v 0.04115321 -2.235174E-08 -0.02345388
v 0.04458535 -0.00828591 -0.01978051
v 0.04458535 -0.00828591 -0.02345388
v 0.04115321 -2.235174E-08 -0.01978051
v 0.04458535 0.008285947 -0.02345388
v 0.04458535 0.008285947 -0.01978042
v 0.05287132 0.01171809 -0.02345388
v 0.04458535 0.008285947 -0.01978042
v 0.04458535 0.008285947 -0.02345388
v 0.05287132 0.01171809 -0.01978051
v 0.0611572 0.008285947 -0.02345388
v 0.05287132 0.01171809 -0.01978051
v 0.05287132 0.01171809 -0.02345388
v 0.0611572 0.008285947 -0.01978051
v 0.06458934 -2.235174E-08 -0.02345388
v 0.06458934 -2.235174E-08 -0.01978051
v 0.0611572 -0.00828591 -0.02345388
v 0.0611572 -0.00828591 -0.01978051
v 0.05287123 -0.01171805 -0.02345388
v 0.05287123 -0.01171805 -0.01978051
v 0.04458535 -0.00828591 -0.01561107
v 0.05287123 -0.01171805 0.02345391
v 0.05287123 -0.01171805 -0.01561107
v 0.04458535 -0.00828591 0.02345391
v 0.04115321 -2.235174E-08 -0.01561107
v 0.04458535 -0.00828591 0.02345391
v 0.04458535 -0.00828591 -0.01561107
v 0.04115321 -2.235174E-08 0.02345391
v 0.04458535 0.008285947 -0.01561107
v 0.04458535 0.008285947 0.02345391
v 0.05287132 0.01171809 -0.01561107
v 0.04458535 0.008285947 0.02345391
v 0.04458535 0.008285947 -0.01561107
v 0.05287132 0.01171809 0.02345391
v 0.0611572 0.008285947 -0.01561107
v 0.05287132 0.01171809 0.02345391
v 0.05287132 0.01171809 -0.01561107
v 0.0611572 0.008285947 0.02345391
v 0.06458934 -2.235174E-08 -0.01561107
v 0.06458934 -2.235174E-08 0.02345391
v 0.0611572 -0.00828591 -0.01561107
v 0.0611572 -0.00828591 0.02345391
v 0.05287123 -0.01171805 -0.01561107
v 0.05287123 -0.01171805 0.02345391
v 0.0454381 -0.007433165 -0.01622662
v 0.05287123 -0.01051207 -0.01916496
v 0.0454381 -0.007433165 -0.01916496
v 0.05287123 -0.01051207 -0.01622662
v 0.0454381 -0.007433165 -0.01916496
v 0.0423592 -2.235174E-08 -0.01622662
v 0.0454381 -0.007433165 -0.01622662
v 0.0423592 -2.235174E-08 -0.01916496
v 0.0454381 0.007433198 -0.01622662
v 0.0454381 0.007433198 -0.01916496
v 0.05287132 0.0105121 -0.01622662
v 0.0454381 0.007433198 -0.01916496
v 0.05287132 0.0105121 -0.01916496
v 0.0454381 0.007433198 -0.01622662
v 0.05287132 0.0105121 -0.01916496
v 0.06030446 0.007433198 -0.01622662
v 0.05287132 0.0105121 -0.01622662
v 0.06030446 0.007433198 -0.01916496
v 0.06338336 -2.235174E-08 -0.01622662
v 0.06338336 -2.235174E-08 -0.01916496
v 0.06030446 -0.007433165 -0.01622662
v 0.06030446 -0.007433165 -0.01916496
v 0.05287123 -0.01051207 -0.01622662
v 0.05287123 -0.01051207 -0.01916496
v 0.05287123 -0.01171805 0.02345391
v 0.06458934 -2.235174E-08 0.02345391
v 0.0611572 -0.00828591 0.02345391
v 0.04115321 -2.235174E-08 0.02345391
v 0.04458535 -0.00828591 0.02345391
v 0.05287132 0.01171809 0.02345391
v 0.0611572 0.008285947 0.02345391
v 0.04458535 0.008285947 0.02345391
v -0.008285947 -0.00828591 -0.01561107
v -5.960464E-08 -0.01051207 -0.01622662
v -0.007433198 -0.007433165 -0.01622662
v -5.960464E-08 -0.01171805 -0.01561107
v -0.01171809 -2.235174E-08 -0.01561107
v 0.007433165 -0.007433165 -0.01622662
v -0.0105121 -2.235174E-08 -0.01622662
v 0.00828591 -0.00828591 -0.01561107
v -0.008285947 0.008285947 -0.01561107
v 0.01051207 -2.235174E-08 -0.01622662
v -0.007433198 0.007433198 -0.01622662
v 0.01171805 -2.235174E-08 -0.01561107
v 2.235174E-08 0.01171809 -0.01561107
v 0.007433165 0.007433198 -0.01622662
v 2.235174E-08 0.0105121 -0.01622662
v 0.00828591 0.008285947 -0.01561107
v -0.007433198 -0.007433165 -0.01916496
v -5.960464E-08 -0.01171805 -0.01978051
v -0.008285947 -0.00828591 -0.01978051
v -5.960464E-08 -0.01051207 -0.01916496
v -0.0105121 -2.235174E-08 -0.01916496
v 0.00828591 -0.00828591 -0.01978051
v -0.01171809 -2.235174E-08 -0.01978051
v 0.007433165 -0.007433165 -0.01916496
v -0.007433198 0.007433198 -0.01916496
v 0.01171805 -2.235174E-08 -0.01978051
v -0.008285947 0.008285947 -0.01978042
v 0.01051207 -2.235174E-08 -0.01916496
v 2.235174E-08 0.0105121 -0.01916496
v 0.00828591 0.008285947 -0.01978051
v 2.235174E-08 0.01171809 -0.01978051
v 0.007433165 0.007433198 -0.01916496
v 0.01851952 -0.00828591 -0.01561107
v 0.02680541 -0.01051207 -0.01622662
v 0.01937227 -0.007433165 -0.01622662
v 0.02680541 -0.01171805 -0.01561107
v 0.01508738 -2.235174E-08 -0.01561107
v 0.03423864 -0.007433165 -0.01622662
v 0.01629337 -2.235174E-08 -0.01622662
v 0.03509138 -0.00828591 -0.01561107
v 0.01851952 0.008285947 -0.01561107
v 0.03731754 -2.235174E-08 -0.01622662
v 0.01937227 0.007433198 -0.01622662
v 0.03852352 -2.235174E-08 -0.01561107
v 0.02680549 0.01171809 -0.01561107
v 0.03423864 0.007433198 -0.01622662
v 0.02680549 0.0105121 -0.01622662
v 0.03509138 0.008285947 -0.01561107
v 0.01937227 -0.007433165 -0.01916496
v 0.02680541 -0.01171805 -0.01978051
v 0.01851952 -0.00828591 -0.01978051
v 0.02680541 -0.01051207 -0.01916496
v 0.01629337 -2.235174E-08 -0.01916496
v 0.03509138 -0.00828591 -0.01978051
v 0.01508738 -2.235174E-08 -0.01978051
v 0.03423864 -0.007433165 -0.01916496
v 0.01937227 0.007433198 -0.01916496
v 0.03852352 -2.235174E-08 -0.01978051
v 0.01851952 0.008285947 -0.01978042
v 0.03731754 -2.235174E-08 -0.01916496
v 0.02680549 0.0105121 -0.01916496
v 0.03509138 0.008285947 -0.01978051
v 0.02680549 0.01171809 -0.01978051
v 0.03423864 0.007433198 -0.01916496
v 0.04458535 -0.00828591 -0.01561107
v 0.05287123 -0.01051207 -0.01622662
v 0.0454381 -0.007433165 -0.01622662
v 0.05287123 -0.01171805 -0.01561107
v 0.04115321 -2.235174E-08 -0.01561107
v 0.06030446 -0.007433165 -0.01622662
v 0.0423592 -2.235174E-08 -0.01622662
v 0.0611572 -0.00828591 -0.01561107
v 0.04458535 0.008285947 -0.01561107
v 0.06338336 -2.235174E-08 -0.01622662
v 0.0454381 0.007433198 -0.01622662
v 0.06458934 -2.235174E-08 -0.01561107
v 0.05287132 0.01171809 -0.01561107
v 0.06030446 0.007433198 -0.01622662
v 0.05287132 0.0105121 -0.01622662
v 0.0611572 0.008285947 -0.01561107
v 0.0454381 -0.007433165 -0.01916496
v 0.05287123 -0.01171805 -0.01978051
v 0.04458535 -0.00828591 -0.01978051
v 0.05287123 -0.01051207 -0.01916496
v 0.0423592 -2.235174E-08 -0.01916496
v 0.0611572 -0.00828591 -0.01978051
v 0.04115321 -2.235174E-08 -0.01978051
v 0.06030446 -0.007433165 -0.01916496
v 0.0454381 0.007433198 -0.01916496
v 0.06458934 -2.235174E-08 -0.01978051
v 0.04458535 0.008285947 -0.01978042
v 0.06338336 -2.235174E-08 -0.01916496
v 0.05287132 0.0105121 -0.01916496
v 0.0611572 0.008285947 -0.01978051
v 0.05287132 0.01171809 -0.01978051
v 0.06030446 0.007433198 -0.01916496
vt 0.6815085 0.5558029
vt 0.5844488 0.6148759
vt 0.6815085 0.6801183
vt 0.6815085 0.6801183
vt 0.6815085 0.6801183
vt 0.6815085 0.5558029
vt 0.6815085 0.5558029
vt 0.6815085 0.5558029
vt 0.6815085 0.6801183
vt 0.6815085 0.6801183
vt 0.6815085 0.6801183
vt 0.6815085 0.5558029
vt 0.6815085 0.5558029
vt 0.04294433 0.6386846
vt 0.03516738 0.6245934
vt 0.03516738 0.6386846
vt 0.04294433 0.6245934
vt 0.04617387 0.5895175
vt 0.03851277 0.5743836
vt 0.03851277 0.5895175
vt 0.04617387 0.5743836
vt 0.03851277 0.5895175
vt 0.03851277 0.5743836
vt 0.03516738 0.6386846
vt 0.04294433 0.6245934
vt 0.04294433 0.6386846
vt 0.03516738 0.6245934
vt 0.03166269 0.5895175
vt 0.05015647 0.5743836
vt 0.05015647 0.5895175
vt 0.03166269 0.5743836
vt 0.02398712 0.5895175
vt 0.02398712 0.5743836
vt 0.03166269 0.5895175
vt 0.03166269 0.5743836
vt 0.05015647 0.5895175
vt 0.05015647 0.5743836
vt 0.1436392 0.9105013
vt 0.1640156 0.9028547
vt 0.1436392 0.9028547
vt 0.1640156 0.9105013
vt 0.1453191 0.9706604
vt 0.1643487 0.9652875
vt 0.1453191 0.9652875
vt 0.1643487 0.9706604
vt 0.1453191 0.9652875
vt 0.1643487 0.9652875
vt 0.1436392 0.9028547
vt 0.1640156 0.9105013
vt 0.1436392 0.9105013
vt 0.1640156 0.9028547
vt 0.145015 0.9642738
vt 0.1617854 0.9724128
vt 0.145015 0.9724128
vt 0.1617854 0.9642738
vt 0.145015 0.9608994
vt 0.1617854 0.9608994
vt 0.145015 0.9642738
vt 0.1617854 0.9642738
vt 0.145015 0.9724128
vt 0.1617854 0.9724128
vt 0.04372637 0.6267803
vt 0.03676043 0.6380619
vt 0.04372637 0.6380619
vt 0.03676043 0.6267803
vt 0.03565978 0.586259
vt 0.04253883 0.5741664
vt 0.03565978 0.5741664
vt 0.04253883 0.586259
vt 0.03565978 0.5741664
vt 0.03565978 0.586259
vt 0.03676043 0.6267803
vt 0.04372637 0.6380619
vt 0.03676043 0.6380619
vt 0.04372637 0.6267803
vt 0.04921513 0.586259
vt 0.03261852 0.5741664
vt 0.04921513 0.5741664
vt 0.03261852 0.586259
vt 0.02573946 0.5741664
vt 0.02573946 0.586259
vt 0.03261852 0.5741664
vt 0.03261852 0.586259
vt 0.04921513 0.5741664
vt 0.04921513 0.586259
vt 0.1617854 0.9724128
vt 0.1617854 0.9608994
vt 0.1617854 0.9642738
vt 0.1643487 0.9706604
vt 0.1640156 0.9105013
vt 0.1640156 0.9028547
vt 0.1617854 0.9642738
vt 0.1643487 0.9652875
vt 0.6815085 0.5558029
vt 0.5844488 0.6148759
vt 0.6815085 0.6801183
vt 0.6815085 0.6801183
vt 0.6815085 0.6801183
vt 0.6815085 0.5558029
vt 0.6815085 0.5558029
vt 0.6815085 0.5558029
vt 0.6815085 0.6801183
vt 0.6815085 0.6801183
vt 0.6815085 0.6801183
vt 0.6815085 0.5558029
vt 0.6815085 0.5558029
vt 0.04294433 0.6386846
vt 0.03516738 0.6245934
vt 0.03516738 0.6386846
vt 0.04294433 0.6245934
vt 0.04617387 0.5895175
vt 0.03851277 0.5743836
vt 0.03851277 0.5895175
vt 0.04617387 0.5743836
vt 0.03851277 0.5895175
vt 0.03851277 0.5743836
vt 0.03516738 0.6386846
vt 0.04294433 0.6245934
vt 0.04294433 0.6386846
vt 0.03516738 0.6245934
vt 0.03166269 0.5895175
vt 0.05015647 0.5743836
vt 0.05015647 0.5895175
vt 0.03166269 0.5743836
vt 0.02398712 0.5895175
vt 0.02398712 0.5743836
vt 0.03166269 0.5895175
vt 0.03166269 0.5743836
vt 0.05015647 0.5895175
vt 0.05015647 0.5743836
vt 0.1436392 0.9105013
vt 0.1640156 0.9028547
vt 0.1436392 0.9028547
vt 0.1640156 0.9105013
vt 0.1453191 0.9706604
vt 0.1643487 0.9652875
vt 0.1453191 0.9652875
vt 0.1643487 0.9706604
vt 0.1453191 0.9652875
vt 0.1643487 0.9652875
vt 0.1436392 0.9028547
vt 0.1640156 0.9105013
vt 0.1436392 0.9105013
vt 0.1640156 0.9028547
vt 0.145015 0.9642738
vt 0.1617854 0.9724128
vt 0.145015 0.9724128
vt 0.1617854 0.9642738
vt 0.145015 0.9608994
vt 0.1617854 0.9608994
vt 0.145015 0.9642738
vt 0.1617854 0.9642738
vt 0.145015 0.9724128
vt 0.1617854 0.9724128
vt 0.04372637 0.6267803
vt 0.03676043 0.6380619
vt 0.04372637 0.6380619
vt 0.03676043 0.6267803
vt 0.03565978 0.586259
vt 0.04253883 0.5741664
vt 0.03565978 0.5741664
vt 0.04253883 0.586259
vt 0.03565978 0.5741664
vt 0.03565978 0.586259
vt 0.03676043 0.6267803
vt 0.04372637 0.6380619
vt 0.03676043 0.6380619
vt 0.04372637 0.6267803
vt 0.04921513 0.586259
vt 0.03261852 0.5741664
vt 0.04921513 0.5741664
vt 0.03261852 0.586259
vt 0.02573946 0.5741664
vt 0.02573946 0.586259
vt 0.03261852 0.5741664
vt 0.03261852 0.586259
vt 0.04921513 0.5741664
vt 0.04921513 0.586259
vt 0.1617854 0.9724128
vt 0.1617854 0.9608994
vt 0.1617854 0.9642738
vt 0.1643487 0.9706604
vt 0.1640156 0.9105013
vt 0.1640156 0.9028547
vt 0.1617854 0.9642738
vt 0.1643487 0.9652875
vt 0.6815085 0.5558029
vt 0.5844488 0.6148759
vt 0.6815085 0.6801183
vt 0.6815085 0.6801183
vt 0.6815085 0.6801183
vt 0.6815085 0.5558029
vt 0.6815085 0.5558029
vt 0.6815085 0.5558029
vt 0.6815085 0.6801183
vt 0.6815085 0.6801183
vt 0.6815085 0.6801183
vt 0.6815085 0.5558029
vt 0.6815085 0.5558029
vt 0.04294433 0.6386846
vt 0.03516738 0.6245934
vt 0.03516738 0.6386846
vt 0.04294433 0.6245934
vt 0.04617387 0.5895175
vt 0.03851277 0.5743836
vt 0.03851277 0.5895175
vt 0.04617387 0.5743836
vt 0.03851277 0.5895175
vt 0.03851277 0.5743836
vt 0.03516738 0.6386846
vt 0.04294433 0.6245934
vt 0.04294433 0.6386846
vt 0.03516738 0.6245934
vt 0.03166269 0.5895175
vt 0.05015647 0.5743836
vt 0.05015647 0.5895175
vt 0.03166269 0.5743836
vt 0.02398712 0.5895175
vt 0.02398712 0.5743836
vt 0.03166269 0.5895175
vt 0.03166269 0.5743836
vt 0.05015647 0.5895175
vt 0.05015647 0.5743836
vt 0.1436392 0.9105013
vt 0.1640156 0.9028547
vt 0.1436392 0.9028547
vt 0.1640156 0.9105013
vt 0.1453191 0.9706604
vt 0.1643487 0.9652875
vt 0.1453191 0.9652875
vt 0.1643487 0.9706604
vt 0.1453191 0.9652875
vt 0.1643487 0.9652875
vt 0.1436392 0.9028547
vt 0.1640156 0.9105013
vt 0.1436392 0.9105013
vt 0.1640156 0.9028547
vt 0.145015 0.9642738
vt 0.1617854 0.9724128
vt 0.145015 0.9724128
vt 0.1617854 0.9642738
vt 0.145015 0.9608994
vt 0.1617854 0.9608994
vt 0.145015 0.9642738
vt 0.1617854 0.9642738
vt 0.145015 0.9724128
vt 0.1617854 0.9724128
vt 0.04372637 0.6267803
vt 0.03676043 0.6380619
vt 0.04372637 0.6380619
vt 0.03676043 0.6267803
vt 0.03565978 0.586259
vt 0.04253883 0.5741664
vt 0.03565978 0.5741664
vt 0.04253883 0.586259
vt 0.03565978 0.5741664
vt 0.03565978 0.586259
vt 0.03676043 0.6267803
vt 0.04372637 0.6380619
vt 0.03676043 0.6380619
vt 0.04372637 0.6267803
vt 0.04921513 0.586259
vt 0.03261852 0.5741664
vt 0.04921513 0.5741664
vt 0.03261852 0.586259
vt 0.02573946 0.5741664
vt 0.02573946 0.586259
vt 0.03261852 0.5741664
vt 0.03261852 0.586259
vt 0.04921513 0.5741664
vt 0.04921513 0.586259
vt 0.1617854 0.9724128
vt 0.1617854 0.9608994
vt 0.1617854 0.9642738
vt 0.1643487 0.9706604
vt 0.1640156 0.9105013
vt 0.1640156 0.9028547
vt 0.1617854 0.9642738
vt 0.1643487 0.9652875
vt 0.1627846 0.9008996
vt 0.1532553 0.9074166
vt 0.1618143 0.9074166
vt 0.1532553 0.9008996
vt 0.1667383 0.9008996
vt 0.1447108 0.9074166
vt 0.165348 0.9074166
vt 0.1437261 0.9008996
vt 0.1627846 0.9008996
vt 0.1411627 0.9074166
vt 0.1618143 0.9074166
vt 0.1397724 0.9008996
vt 0.1532553 0.9008996
vt 0.1447108 0.9074166
vt 0.1532553 0.9074166
vt 0.1437261 0.9008996
vt 0.04366844 0.6281561
vt 0.03577564 0.6364689
vt 0.04458082 0.6364689
vt 0.03577564 0.6281561
vt 0.04694142 0.6281561
vt 0.02697045 0.6364689
vt 0.04823034 0.6364689
vt 0.02786835 0.6281561
vt 0.04366844 0.6281561
vt 0.02332093 0.6364689
vt 0.04458082 0.6364689
vt 0.02459537 0.6281561
vt 0.03577564 0.6281561
vt 0.02697045 0.6364689
vt 0.03577564 0.6364689
vt 0.02786835 0.6281561
vt 0.1627846 0.9008996
vt 0.1532553 0.9074166
vt 0.1618143 0.9074166
vt 0.1532553 0.9008996
vt 0.1667383 0.9008996
vt 0.1447108 0.9074166
vt 0.165348 0.9074166
vt 0.1437261 0.9008996
vt 0.1627846 0.9008996
vt 0.1411627 0.9074166
vt 0.1618143 0.9074166
vt 0.1397724 0.9008996
vt 0.1532553 0.9008996
vt 0.1447108 0.9074166
vt 0.1532553 0.9074166
vt 0.1437261 0.9008996
vt 0.04366844 0.6281561
vt 0.03577564 0.6364689
vt 0.04458082 0.6364689
vt 0.03577564 0.6281561
vt 0.04694142 0.6281561
vt 0.02697045 0.6364689
vt 0.04823034 0.6364689
vt 0.02786835 0.6281561
vt 0.04366844 0.6281561
vt 0.02332093 0.6364689
vt 0.04458082 0.6364689
vt 0.02459537 0.6281561
vt 0.03577564 0.6281561
vt 0.02697045 0.6364689
vt 0.03577564 0.6364689
vt 0.02786835 0.6281561
vt 0.1627846 0.9008996
vt 0.1532553 0.9074166
vt 0.1618143 0.9074166
vt 0.1532553 0.9008996
vt 0.1667383 0.9008996
vt 0.1447108 0.9074166
vt 0.165348 0.9074166
vt 0.1437261 0.9008996
vt 0.1627846 0.9008996
vt 0.1411627 0.9074166
vt 0.1618143 0.9074166
vt 0.1397724 0.9008996
vt 0.1532553 0.9008996
vt 0.1447108 0.9074166
vt 0.1532553 0.9074166
vt 0.1437261 0.9008996
vt 0.04366844 0.6281561
vt 0.03577564 0.6364689
vt 0.04458082 0.6364689
vt 0.03577564 0.6281561
vt 0.04694142 0.6281561
vt 0.02697045 0.6364689
vt 0.04823034 0.6364689
vt 0.02786835 0.6281561
vt 0.04366844 0.6281561
vt 0.02332093 0.6364689
vt 0.04458082 0.6364689
vt 0.02459537 0.6281561
vt 0.03577564 0.6281561
vt 0.02697045 0.6364689
vt 0.03577564 0.6364689
vt 0.02786835 0.6281561
vn 0.0009775162 -0.0009775162 -0.999999
vn -0.0009775162 0.0009775162 -0.999999
vn -0.0009775162 0.0009775162 -0.999999
vn -0.0009775162 -0.0009775162 -0.999999
vn -0.0009775162 0.0009775162 -0.999999
vn -0.0009775162 0.0009775162 -0.999999
vn -0.0009775162 0.0009775162 -0.999999
vn 0.0009775162 0.0009775162 -0.999999
vn -0.0009775162 0.0009775162 -0.999999
vn -0.0009775162 0.0009775162 -0.999999
vn -0.0009775162 -0.0009775162 -0.999999
vn -0.0009775162 0.0009775162 -0.999999
vn -0.0009775162 -0.0009775162 -0.999999
vn -0.7067446 -0.7067446 -0.03200431
vn -0.0009775162 -0.9999995 0
vn -0.0009775162 -0.9999995 0
vn -0.7067446 -0.7067446 -0.03200431
vn -0.9999995 0.0009775162 0
vn -0.7067446 -0.7067446 -0.03200431
vn -0.7067446 -0.7067446 -0.03200431
vn -0.9999995 0.0009775162 0
vn -0.7067446 0.7067446 0.03200431
vn -0.7067446 0.7067446 0.03200431
vn 0.0009775162 0.9999995 0
vn -0.7067446 0.7067446 0.03200431
vn -0.7067446 0.7067446 0.03200431
vn 0.0009775162 0.9999995 0
vn 0.7067446 0.7067446 0.03200431
vn 0.0009775162 0.9999995 0
vn 0.0009775162 0.9999995 0
vn 0.7067446 0.7067446 0.03200431
vn 0.9999995 -0.0009775162 0
vn 0.9999995 0.0009775162 0
vn 0.7067446 -0.7067446 -0.03200431
vn 0.7067446 -0.7067446 -0.03200431
vn -0.0009775162 -0.9999995 0
vn -0.0009775162 -0.9999995 0
vn -0.7067446 -0.7067446 -0.03200431
vn -0.0009775162 -0.9999995 0
vn -0.0009775162 -0.9999995 0
vn -0.7067446 -0.7067446 -0.03200431
vn -0.9999995 0.0009775162 0
vn -0.7067446 -0.7067446 -0.03200431
vn -0.7067446 -0.7067446 -0.03200431
vn -0.9999995 0.0009775162 0
vn -0.7067446 0.7067446 -0.03200431
vn -0.7067446 0.7067446 -0.03200431
vn 0.0009775162 0.9999995 0
vn -0.7067446 0.7067446 -0.03200431
vn -0.7067446 0.7067446 -0.03200431
vn 0.0009775162 0.9999995 0
vn 0.7067446 0.7067446 -0.03200431
vn 0.0009775162 0.9999995 0
vn 0.0009775162 0.9999995 0
vn 0.7067446 0.7067446 -0.03200431
vn 0.9999995 0.0009775162 0
vn 0.9999995 0.0009775162 0
vn 0.7067446 -0.7067446 -0.03200431
vn 0.7067446 -0.7067446 -0.03200431
vn -0.0009775162 -0.9999995 0
vn -0.0009775162 -0.9999995 0
vn -0.7067446 -0.7067446 -0.03200431
vn -0.0009775162 -0.9999995 0
vn -0.7067446 -0.7067446 -0.03200431
vn -0.0009775162 -0.9999995 0
vn -0.7067446 -0.7067446 -0.03200431
vn -0.9999995 0.0009775162 0
vn -0.7067446 -0.7067446 -0.03200431
vn -0.9999995 0.0009775162 0
vn -0.7067446 0.7067446 0.03200431
vn -0.7067446 0.7067446 0.03200431
vn 0.0009775162 0.9999995 0
vn -0.7067446 0.7067446 0.03200431
vn 0.0009775162 0.9999995 0
vn -0.7067446 0.7067446 0.03200431
vn 0.0009775162 0.9999995 0
vn 0.7067446 0.7067446 0.03200431
vn 0.0009775162 0.9999995 0
vn 0.7067446 0.7067446 0.03200431
vn 0.9999995 -0.0009775162 0
vn 0.9999995 -0.0009775162 0
vn 0.7067446 -0.7067446 -0.03200431
vn 0.7067446 -0.7067446 -0.03200431
vn -0.0009775162 -0.9999995 0
vn -0.0009775162 -0.9999995 0
vn 0.0009775162 0.0009775162 0.999999
vn 0.0009775162 -0.0009775162 0.999999
vn 0.0009775162 -0.0009775162 0.999999
vn 0.0009775162 -0.0009775162 0.999999
vn -0.0009775162 -0.0009775162 0.999999
vn 0.0009775162 -0.0009775162 0.999999
vn -0.0009775162 -0.0009775162 0.999999
vn 0.0009775162 -0.0009775162 0.999999
vn 0.0009775162 -0.0009775162 -0.999999
vn -0.0009775162 0.0009775162 -0.999999
vn -0.0009775162 0.0009775162 -0.999999
vn -0.0009775162 -0.0009775162 -0.999999
vn -0.0009775162 0.0009775162 -0.999999
vn -0.0009775162 0.0009775162 -0.999999
vn -0.0009775162 0.0009775162 -0.999999
vn 0.0009775162 0.0009775162 -0.999999
vn -0.0009775162 0.0009775162 -0.999999
vn -0.0009775162 0.0009775162 -0.999999
vn -0.0009775162 -0.0009775162 -0.999999
vn -0.0009775162 0.0009775162 -0.999999
vn -0.0009775162 -0.0009775162 -0.999999
vn -0.7067446 -0.7067446 -0.03200431
vn -0.0009775162 -0.9999995 0
vn -0.0009775162 -0.9999995 0
vn -0.7067446 -0.7067446 -0.03200431
vn -0.9999995 0.0009775162 0
vn -0.7067446 -0.7067446 -0.03200431
vn -0.7067446 -0.7067446 -0.03200431
vn -0.9999995 0.0009775162 0
vn -0.7067446 0.7067446 0.03200431
vn -0.7067446 0.7067446 0.03200431
vn 0.0009775162 0.9999995 0
vn -0.7067446 0.7067446 0.03200431
vn -0.7067446 0.7067446 0.03200431
vn 0.0009775162 0.9999995 0
vn 0.7067446 0.7067446 0.03200431
vn 0.0009775162 0.9999995 0
vn 0.0009775162 0.9999995 0
vn 0.7067446 0.7067446 0.03200431
vn 0.9999995 -0.0009775162 0
vn 0.9999995 0.0009775162 0
vn 0.7067446 -0.7067446 -0.03200431
vn 0.7067446 -0.7067446 -0.03200431
vn -0.0009775162 -0.9999995 0
vn -0.0009775162 -0.9999995 0
vn -0.7067446 -0.7067446 -0.03200431
vn -0.0009775162 -0.9999995 0
vn -0.0009775162 -0.9999995 0
vn -0.7067446 -0.7067446 -0.03200431
vn -0.9999995 0.0009775162 0
vn -0.7067446 -0.7067446 -0.03200431
vn -0.7067446 -0.7067446 -0.03200431
vn -0.9999995 0.0009775162 0
vn -0.7067446 0.7067446 -0.03200431
vn -0.7067446 0.7067446 -0.03200431
vn 0.0009775162 0.9999995 0
vn -0.7067446 0.7067446 -0.03200431
vn -0.7067446 0.7067446 -0.03200431
vn 0.0009775162 0.9999995 0
vn 0.7067446 0.7067446 -0.03200431
vn 0.0009775162 0.9999995 0
vn 0.0009775162 0.9999995 0
vn 0.7067446 0.7067446 -0.03200431
vn 0.9999995 0.0009775162 0
vn 0.9999995 0.0009775162 0
vn 0.7067446 -0.7067446 -0.03200431
vn 0.7067446 -0.7067446 -0.03200431
vn -0.0009775162 -0.9999995 0
vn -0.0009775162 -0.9999995 0
vn -0.7067446 -0.7067446 -0.03200431
vn -0.0009775162 -0.9999995 0
vn -0.7067446 -0.7067446 -0.03200431
vn -0.0009775162 -0.9999995 0
vn -0.7067446 -0.7067446 -0.03200431
vn -0.9999995 0.0009775162 0
vn -0.7067446 -0.7067446 -0.03200431
vn -0.9999995 0.0009775162 0
vn -0.7067446 0.7067446 0.03200431
vn -0.7067446 0.7067446 0.03200431
vn 0.0009775162 0.9999995 0
vn -0.7067446 0.7067446 0.03200431
vn 0.0009775162 0.9999995 0
vn -0.7067446 0.7067446 0.03200431
vn 0.0009775162 0.9999995 0
vn 0.7067446 0.7067446 0.03200431
vn 0.0009775162 0.9999995 0
vn 0.7067446 0.7067446 0.03200431
vn 0.9999995 -0.0009775162 0
vn 0.9999995 -0.0009775162 0
vn 0.7067446 -0.7067446 -0.03200431
vn 0.7067446 -0.7067446 -0.03200431
vn -0.0009775162 -0.9999995 0
vn -0.0009775162 -0.9999995 0
vn 0.0009775162 0.0009775162 0.999999
vn 0.0009775162 -0.0009775162 0.999999
vn 0.0009775162 -0.0009775162 0.999999
vn 0.0009775162 -0.0009775162 0.999999
vn -0.0009775162 -0.0009775162 0.999999
vn 0.0009775162 -0.0009775162 0.999999
vn -0.0009775162 -0.0009775162 0.999999
vn 0.0009775162 -0.0009775162 0.999999
vn 0.0009775162 -0.0009775162 -0.999999
vn -0.0009775162 0.0009775162 -0.999999
vn -0.0009775162 0.0009775162 -0.999999
vn -0.0009775162 -0.0009775162 -0.999999
vn -0.0009775162 0.0009775162 -0.999999
vn -0.0009775162 0.0009775162 -0.999999
vn -0.0009775162 0.0009775162 -0.999999
vn 0.0009775162 0.0009775162 -0.999999
vn -0.0009775162 0.0009775162 -0.999999
vn -0.0009775162 0.0009775162 -0.999999
vn -0.0009775162 -0.0009775162 -0.999999
vn -0.0009775162 0.0009775162 -0.999999
vn -0.0009775162 -0.0009775162 -0.999999
vn -0.7067446 -0.7067446 -0.03200431
vn -0.0009775162 -0.9999995 0
vn -0.0009775162 -0.9999995 0
vn -0.7067446 -0.7067446 -0.03200431
vn -0.9999995 0.0009775162 0
vn -0.7067446 -0.7067446 -0.03200431
vn -0.7067446 -0.7067446 -0.03200431
vn -0.9999995 0.0009775162 0
vn -0.7067446 0.7067446 0.03200431
vn -0.7067446 0.7067446 0.03200431
vn 0.0009775162 0.9999995 0
vn -0.7067446 0.7067446 0.03200431
vn -0.7067446 0.7067446 0.03200431
vn 0.0009775162 0.9999995 0
vn 0.7067446 0.7067446 0.03200431
vn 0.0009775162 0.9999995 0
vn 0.0009775162 0.9999995 0
vn 0.7067446 0.7067446 0.03200431
vn 0.9999995 -0.0009775162 0
vn 0.9999995 0.0009775162 0
vn 0.7067446 -0.7067446 -0.03200431
vn 0.7067446 -0.7067446 -0.03200431
vn -0.0009775162 -0.9999995 0
vn -0.0009775162 -0.9999995 0
vn -0.7067446 -0.7067446 -0.03200431
vn -0.0009775162 -0.9999995 0
vn -0.0009775162 -0.9999995 0
vn -0.7067446 -0.7067446 -0.03200431
vn -0.9999995 0.0009775162 0
vn -0.7067446 -0.7067446 -0.03200431
vn -0.7067446 -0.7067446 -0.03200431
vn -0.9999995 0.0009775162 0
vn -0.7067446 0.7067446 -0.03200431
vn -0.7067446 0.7067446 -0.03200431
vn 0.0009775162 0.9999995 0
vn -0.7067446 0.7067446 -0.03200431
vn -0.7067446 0.7067446 -0.03200431
vn 0.0009775162 0.9999995 0
vn 0.7067446 0.7067446 -0.03200431
vn 0.0009775162 0.9999995 0
vn 0.0009775162 0.9999995 0
vn 0.7067446 0.7067446 -0.03200431
vn 0.9999995 0.0009775162 0
vn 0.9999995 0.0009775162 0
vn 0.7067446 -0.7067446 -0.03200431
vn 0.7067446 -0.7067446 -0.03200431
vn -0.0009775162 -0.9999995 0
vn -0.0009775162 -0.9999995 0
vn -0.7067446 -0.7067446 -0.03200431
vn -0.0009775162 -0.9999995 0
vn -0.7067446 -0.7067446 -0.03200431
vn -0.0009775162 -0.9999995 0
vn -0.7067446 -0.7067446 -0.03200431
vn -0.9999995 0.0009775162 0
vn -0.7067446 -0.7067446 -0.03200431
vn -0.9999995 0.0009775162 0
vn -0.7067446 0.7067446 0.03200431
vn -0.7067446 0.7067446 0.03200431
vn 0.0009775162 0.9999995 0
vn -0.7067446 0.7067446 0.03200431
vn 0.0009775162 0.9999995 0
vn -0.7067446 0.7067446 0.03200431
vn 0.0009775162 0.9999995 0
vn 0.7067446 0.7067446 0.03200431
vn 0.0009775162 0.9999995 0
vn 0.7067446 0.7067446 0.03200431
vn 0.9999995 -0.0009775162 0
vn 0.9999995 -0.0009775162 0
vn 0.7067446 -0.7067446 -0.03200431
vn 0.7067446 -0.7067446 -0.03200431
vn -0.0009775162 -0.9999995 0
vn -0.0009775162 -0.9999995 0
vn 0.0009775162 0.0009775162 0.999999
vn 0.0009775162 -0.0009775162 0.999999
vn 0.0009775162 -0.0009775162 0.999999
vn 0.0009775162 -0.0009775162 0.999999
vn -0.0009775162 -0.0009775162 0.999999
vn 0.0009775162 -0.0009775162 0.999999
vn -0.0009775162 -0.0009775162 0.999999
vn 0.0009775162 -0.0009775162 0.999999
vn -0.3216029 -0.321603 -0.8905858
vn -0.0009775162 -0.4545453 -0.8907231
vn -0.3216029 -0.321603 -0.8905858
vn -0.0009775162 -0.4545453 -0.8907231
vn -0.4545453 0.0009775162 -0.8907231
vn 0.321603 -0.321603 -0.8905858
vn -0.4545453 0.0009775162 -0.8907231
vn 0.321603 -0.321603 -0.8905858
vn -0.3216029 0.3216029 -0.8905858
vn 0.4545453 0.0009775162 -0.8907231
vn -0.3216029 0.3216029 -0.8905858
vn 0.4545453 0.0009775162 -0.8907231
vn -0.0009775162 0.4545453 -0.8907231
vn 0.321603 0.3216029 -0.8905858
vn -0.0009775162 0.4545453 -0.8907231
vn 0.321603 0.3216029 -0.8905858
vn -0.3216029 -0.321603 0.8905858
vn -0.0009775162 -0.4545453 0.8907231
vn -0.3216029 -0.321603 0.8905858
vn -0.0009775162 -0.4545453 0.8907231
vn -0.4545453 -0.0009775162 0.8907231
vn 0.321603 -0.321603 0.8905858
vn -0.4545453 -0.0009775162 0.8907231
vn 0.321603 -0.321603 0.8905858
vn -0.3216029 0.3216029 0.8905858
vn 0.4545453 -0.0009775162 0.8907231
vn -0.3216029 0.3216029 0.8905858
vn 0.4545453 -0.0009775162 0.8907231
vn -0.0009775162 0.4545453 0.8907231
vn 0.321603 0.3216029 0.8905858
vn 0.0009775162 0.4545453 0.8907231
vn 0.321603 0.3216029 0.8905858
vn -0.3216029 -0.321603 -0.8905858
vn -0.0009775162 -0.4545453 -0.8907231
vn -0.3216029 -0.321603 -0.8905858
vn -0.0009775162 -0.4545453 -0.8907231
vn -0.4545453 0.0009775162 -0.8907231
vn 0.321603 -0.321603 -0.8905858
vn -0.4545453 0.0009775162 -0.8907231
vn 0.321603 -0.321603 -0.8905858
vn -0.3216029 0.3216029 -0.8905858
vn 0.4545453 0.0009775162 -0.8907231
vn -0.3216029 0.3216029 -0.8905858
vn 0.4545453 0.0009775162 -0.8907231
vn -0.0009775162 0.4545453 -0.8907231
vn 0.321603 0.3216029 -0.8905858
vn -0.0009775162 0.4545453 -0.8907231
vn 0.321603 0.3216029 -0.8905858
vn -0.3216029 -0.321603 0.8905858
vn -0.0009775162 -0.4545453 0.8907231
vn -0.3216029 -0.321603 0.8905858
vn -0.0009775162 -0.4545453 0.8907231
vn -0.4545453 -0.0009775162 0.8907231
vn 0.321603 -0.321603 0.8905858
vn -0.4545453 -0.0009775162 0.8907231
vn 0.321603 -0.321603 0.8905858
vn -0.3216029 0.3216029 0.8905858
vn 0.4545453 -0.0009775162 0.8907231
vn -0.3216029 0.3216029 0.8905858
vn 0.4545453 -0.0009775162 0.8907231
vn -0.0009775162 0.4545453 0.8907231
vn 0.321603 0.3216029 0.8905858
vn 0.0009775162 0.4545453 0.8907231
vn 0.321603 0.3216029 0.8905858
vn -0.3216029 -0.321603 -0.8905858
vn -0.0009775162 -0.4545453 -0.8907231
vn -0.3216029 -0.321603 -0.8905858
vn -0.0009775162 -0.4545453 -0.8907231
vn -0.4545453 0.0009775162 -0.8907231
vn 0.321603 -0.321603 -0.8905858
vn -0.4545453 0.0009775162 -0.8907231
vn 0.321603 -0.321603 -0.8905858
vn -0.3216029 0.3216029 -0.8905858
vn 0.4545453 0.0009775162 -0.8907231
vn -0.3216029 0.3216029 -0.8905858
vn 0.4545453 0.0009775162 -0.8907231
vn -0.0009775162 0.4545453 -0.8907231
vn 0.321603 0.3216029 -0.8905858
vn -0.0009775162 0.4545453 -0.8907231
vn 0.321603 0.3216029 -0.8905858
vn -0.3216029 -0.321603 0.8905858
vn -0.0009775162 -0.4545453 0.8907231
vn -0.3216029 -0.321603 0.8905858
vn -0.0009775162 -0.4545453 0.8907231
vn -0.4545453 -0.0009775162 0.8907231
vn 0.321603 -0.321603 0.8905858
vn -0.4545453 -0.0009775162 0.8907231
vn 0.321603 -0.321603 0.8905858
vn -0.3216029 0.3216029 0.8905858
vn 0.4545453 -0.0009775162 0.8907231
vn -0.3216029 0.3216029 0.8905858
vn 0.4545453 -0.0009775162 0.8907231
vn -0.0009775162 0.4545453 0.8907231
vn 0.321603 0.3216029 0.8905858
vn 0.0009775162 0.4545453 0.8907231
vn 0.321603 0.3216029 0.8905858
g Chise_Original_Weapon01_0
f 3/3/3 2/2/2 1/1/1
f 1/1/1 2/2/2 4/4/4
f 6/6/6 2/2/2 5/5/5
f 7/7/7 5/5/5 2/2/2
f 9/9/9 2/2/2 8/8/8
f 8/8/8 2/2/2 10/10/10
f 12/12/12 11/11/11 2/2/2
f 11/11/11 13/13/13 2/2/2
f 16/16/16 15/15/15 14/14/14
f 17/17/17 14/14/14 15/15/15
f 20/20/20 19/19/19 18/18/18
f 21/21/21 18/18/18 19/19/19
f 18/18/18 21/21/21 22/22/22
f 23/23/23 22/22/22 21/21/21
f 26/26/26 25/25/25 24/24/24
f 27/27/27 24/24/24 25/25/25
f 30/30/30 29/29/29 28/28/28
f 31/31/31 28/28/28 29/29/29
f 28/28/28 31/31/31 32/32/32
f 33/33/33 32/32/32 31/31/31
f 32/32/32 33/33/33 34/34/34
f 35/35/35 34/34/34 33/33/33
f 34/34/34 35/35/35 36/36/36
f 37/37/37 36/36/36 35/35/35
f 40/40/40 39/39/39 38/38/38
f 41/41/41 38/38/38 39/39/39
f 44/44/44 43/43/43 42/42/42
f 45/45/45 42/42/42 43/43/43
f 42/42/42 45/45/45 46/46/46
f 47/47/47 46/46/46 45/45/45
f 50/50/50 49/49/49 48/48/48
f 51/51/51 48/48/48 49/49/49
f 54/54/54 53/53/53 52/52/52
f 55/55/55 52/52/52 53/53/53
f 52/52/52 55/55/55 56/56/56
f 57/57/57 56/56/56 55/55/55
f 56/56/56 57/57/57 58/58/58
f 59/59/59 58/58/58 57/57/57
f 58/58/58 59/59/59 60/60/60
f 61/61/61 60/60/60 59/59/59
f 64/64/64 63/63/63 62/62/62
f 65/65/65 62/62/62 63/63/63
f 68/68/68 67/67/67 66/66/66
f 69/69/69 66/66/66 67/67/67
f 67/67/67 70/70/70 69/69/69
f 71/71/71 69/69/69 70/70/70
f 74/74/74 73/73/73 72/72/72
f 75/75/75 72/72/72 73/73/73
f 78/78/78 77/77/77 76/76/76
f 79/79/79 76/76/76 77/77/77
f 77/77/77 80/80/80 79/79/79
f 81/81/81 79/79/79 80/80/80
f 80/80/80 82/82/82 81/81/81
f 83/83/83 81/81/81 82/82/82
f 82/82/82 84/84/84 83/83/83
f 85/85/85 83/83/83 84/84/84
f 88/88/88 87/87/87 86/86/86
f 87/87/87 89/89/89 86/86/86
f 86/86/86 89/89/89 90/90/90
f 91/91/91 89/89/89 87/87/87
f 92/92/92 91/91/91 87/87/87
f 93/93/93 89/89/89 91/91/91
f 96/96/96 95/95/95 94/94/94
f 94/94/94 95/95/95 97/97/97
f 99/99/99 95/95/95 98/98/98
f 100/100/100 98/98/98 95/95/95
f 102/102/102 95/95/95 101/101/101
f 101/101/101 95/95/95 103/103/103
f 105/105/105 104/104/104 95/95/95
f 104/104/104 106/106/106 95/95/95
f 109/109/109 108/108/108 107/107/107
f 110/110/110 107/107/107 108/108/108
f 113/113/113 112/112/112 111/111/111
f 114/114/114 111/111/111 112/112/112
f 111/111/111 114/114/114 115/115/115
f 116/116/116 115/115/115 114/114/114
f 119/119/119 118/118/118 117/117/117
f 120/120/120 117/117/117 118/118/118
f 123/123/123 122/122/122 121/121/121
f 124/124/124 121/121/121 122/122/122
f 121/121/121 124/124/124 125/125/125
f 126/126/126 125/125/125 124/124/124
f 125/125/125 126/126/126 127/127/127
f 128/128/128 127/127/127 126/126/126
f 127/127/127 128/128/128 129/129/129
f 130/130/130 129/129/129 128/128/128
f 133/133/133 132/132/132 131/131/131
f 134/134/134 131/131/131 132/132/132
f 137/137/137 136/136/136 135/135/135
f 138/138/138 135/135/135 136/136/136
f 135/135/135 138/138/138 139/139/139
f 140/140/140 139/139/139 138/138/138
f 143/143/143 142/142/142 141/141/141
f 144/144/144 141/141/141 142/142/142
f 147/147/147 146/146/146 145/145/145
f 148/148/148 145/145/145 146/146/146
f 145/145/145 148/148/148 149/149/149
f 150/150/150 149/149/149 148/148/148
f 149/149/149 150/150/150 151/151/151
f 152/152/152 151/151/151 150/150/150
f 151/151/151 152/152/152 153/153/153
f 154/154/154 153/153/153 152/152/152
f 157/157/157 156/156/156 155/155/155
f 158/158/158 155/155/155 156/156/156
f 161/161/161 160/160/160 159/159/159
f 162/162/162 159/159/159 160/160/160
f 160/160/160 163/163/163 162/162/162
f 164/164/164 162/162/162 163/163/163
f 167/167/167 166/166/166 165/165/165
f 168/168/168 165/165/165 166/166/166
f 171/171/171 170/170/170 169/169/169
f 172/172/172 169/169/169 170/170/170
f 170/170/170 173/173/173 172/172/172
f 174/174/174 172/172/172 173/173/173
f 173/173/173 175/175/175 174/174/174
f 176/176/176 174/174/174 175/175/175
f 175/175/175 177/177/177 176/176/176
f 178/178/178 176/176/176 177/177/177
f 181/181/181 180/180/180 179/179/179
f 180/180/180 182/182/182 179/179/179
f 179/179/179 182/182/182 183/183/183
f 184/184/184 182/182/182 180/180/180
f 185/185/185 184/184/184 180/180/180
f 186/186/186 182/182/182 184/184/184
f 189/189/189 188/188/188 187/187/187
f 187/187/187 188/188/188 190/190/190
f 192/192/192 188/188/188 191/191/191
f 193/193/193 191/191/191 188/188/188
f 195/195/195 188/188/188 194/194/194
f 194/194/194 188/188/188 196/196/196
f 198/198/198 197/197/197 188/188/188
f 197/197/197 199/199/199 188/188/188
f 202/202/202 201/201/201 200/200/200
f 203/203/203 200/200/200 201/201/201
f 206/206/206 205/205/205 204/204/204
f 207/207/207 204/204/204 205/205/205
f 204/204/204 207/207/207 208/208/208
f 209/209/209 208/208/208 207/207/207
f 212/212/212 211/211/211 210/210/210
f 213/213/213 210/210/210 211/211/211
f 216/216/216 215/215/215 214/214/214
f 217/217/217 214/214/214 215/215/215
f 214/214/214 217/217/217 218/218/218
f 219/219/219 218/218/218 217/217/217
f 218/218/218 219/219/219 220/220/220
f 221/221/221 220/220/220 219/219/219
f 220/220/220 221/221/221 222/222/222
f 223/223/223 222/222/222 221/221/221
f 226/226/226 225/225/225 224/224/224
f 227/227/227 224/224/224 225/225/225
f 230/230/230 229/229/229 228/228/228
f 231/231/231 228/228/228 229/229/229
f 228/228/228 231/231/231 232/232/232
f 233/233/233 232/232/232 231/231/231
f 236/236/236 235/235/235 234/234/234
f 237/237/237 234/234/234 235/235/235
f 240/240/240 239/239/239 238/238/238
f 241/241/241 238/238/238 239/239/239
f 238/238/238 241/241/241 242/242/242
f 243/243/243 242/242/242 241/241/241
f 242/242/242 243/243/243 244/244/244
f 245/245/245 244/244/244 243/243/243
f 244/244/244 245/245/245 246/246/246
f 247/247/247 246/246/246 245/245/245
f 250/250/250 249/249/249 248/248/248
f 251/251/251 248/248/248 249/249/249
f 254/254/254 253/253/253 252/252/252
f 255/255/255 252/252/252 253/253/253
f 253/253/253 256/256/256 255/255/255
f 257/257/257 255/255/255 256/256/256
f 260/260/260 259/259/259 258/258/258
f 261/261/261 258/258/258 259/259/259
f 264/264/264 263/263/263 262/262/262
f 265/265/265 262/262/262 263/263/263
f 263/263/263 266/266/266 265/265/265
f 267/267/267 265/265/265 266/266/266
f 266/266/266 268/268/268 267/267/267
f 269/269/269 267/267/267 268/268/268
f 268/268/268 270/270/270 269/269/269
f 271/271/271 269/269/269 270/270/270
f 274/274/274 273/273/273 272/272/272
f 273/273/273 275/275/275 272/272/272
f 272/272/272 275/275/275 276/276/276
f 277/277/277 275/275/275 273/273/273
f 278/278/278 277/277/277 273/273/273
f 279/279/279 275/275/275 277/277/277
f 282/282/282 281/281/281 280/280/280
f 283/283/283 280/280/280 281/281/281
f 280/280/280 284/284/284 282/282/282
f 281/281/281 285/285/285 283/283/283
f 286/286/286 282/282/282 284/284/284
f 287/287/287 283/283/283 285/285/285
f 284/284/284 288/288/288 286/286/286
f 285/285/285 289/289/289 287/287/287
f 290/290/290 286/286/286 288/288/288
f 291/291/291 287/287/287 289/289/289
f 288/288/288 292/292/292 290/290/290
f 289/289/289 293/293/293 291/291/291
f 294/294/294 290/290/290 292/292/292
f 295/295/295 291/291/291 293/293/293
f 292/292/292 295/295/295 294/294/294
f 293/293/293 294/294/294 295/295/295
f 298/298/298 297/297/297 296/296/296
f 299/299/299 296/296/296 297/297/297
f 296/296/296 300/300/300 298/298/298
f 297/297/297 301/301/301 299/299/299
f 302/302/302 298/298/298 300/300/300
f 303/303/303 299/299/299 301/301/301
f 300/300/300 304/304/304 302/302/302
f 301/301/301 305/305/305 303/303/303
f 306/306/306 302/302/302 304/304/304
f 307/307/307 303/303/303 305/305/305
f 304/304/304 308/308/308 306/306/306
f 305/305/305 309/309/309 307/307/307
f 310/310/310 306/306/306 308/308/308
f 311/311/311 307/307/307 309/309/309
f 308/308/308 311/311/311 310/310/310
f 309/309/309 310/310/310 311/311/311
f 314/314/314 313/313/313 312/312/312
f 315/315/315 312/312/312 313/313/313
f 312/312/312 316/316/316 314/314/314
f 313/313/313 317/317/317 315/315/315
f 318/318/318 314/314/314 316/316/316
f 319/319/319 315/315/315 317/317/317
f 316/316/316 320/320/320 318/318/318
f 317/317/317 321/321/321 319/319/319
f 322/322/322 318/318/318 320/320/320
f 323/323/323 319/319/319 321/321/321
f 320/320/320 324/324/324 322/322/322
f 321/321/321 325/325/325 323/323/323
f 326/326/326 322/322/322 324/324/324
f 327/327/327 323/323/323 325/325/325
f 324/324/324 327/327/327 326/326/326
f 325/325/325 326/326/326 327/327/327
f 330/330/330 329/329/329 328/328/328
f 331/331/331 328/328/328 329/329/329
f 328/328/328 332/332/332 330/330/330
f 329/329/329 333/333/333 331/331/331
f 334/334/334 330/330/330 332/332/332
f 335/335/335 331/331/331 333/333/333
f 332/332/332 336/336/336 334/334/334
f 333/333/333 337/337/337 335/335/335
f 338/338/338 334/334/334 336/336/336
f 339/339/339 335/335/335 337/337/337
f 336/336/336 340/340/340 338/338/338
f 337/337/337 341/341/341 339/339/339
f 342/342/342 338/338/338 340/340/340
f 343/343/343 339/339/339 341/341/341
f 340/340/340 343/343/343 342/342/342
f 341/341/341 342/342/342 343/343/343
f 346/346/346 345/345/345 344/344/344
f 347/347/347 344/344/344 345/345/345
f 344/344/344 348/348/348 346/346/346
f 345/345/345 349/349/349 347/347/347
f 350/350/350 346/346/346 348/348/348
f 351/351/351 347/347/347 349/349/349
f 348/348/348 352/352/352 350/350/350
f 349/349/349 353/353/353 351/351/351
f 354/354/354 350/350/350 352/352/352
f 355/355/355 351/351/351 353/353/353
f 352/352/352 356/356/356 354/354/354
f 353/353/353 357/357/357 355/355/355
f 358/358/358 354/354/354 356/356/356
f 359/359/359 355/355/355 357/357/357
f 356/356/356 359/359/359 358/358/358
f 357/357/357 358/358/358 359/359/359
f 362/362/362 361/361/361 360/360/360
f 363/363/363 360/360/360 361/361/361
f 360/360/360 364/364/364 362/362/362
f 361/361/361 365/365/365 363/363/363
f 366/366/366 362/362/362 364/364/364
f 367/367/367 363/363/363 365/365/365
f 364/364/364 368/368/368 366/366/366
f 365/365/365 369/369/369 367/367/367
f 370/370/370 366/366/366 368/368/368
f 371/371/371 367/367/367 369/369/369
f 368/368/368 372/372/372 370/370/370
f 369/369/369 373/373/373 371/371/371
f 374/374/374 370/370/370 372/372/372
f 375/375/375 371/371/371 373/373/373
f 372/372/372 375/375/375 374/374/374
f 373/373/373 374/374/374 375/375/375
